<?xml version="1.0" standalone="no"?>
<!DOCTYPE svg PUBLIC "-//W3C//DTD SVG 20010904//EN"
 "http://www.w3.org/TR/2001/REC-SVG-20010904/DTD/svg10.dtd">
<svg version="1.0"
    xmlns="http://www.w3.org/2000/svg" width="8000.000000pt" height="6000.000000pt" viewBox="0 0 1500.000000 1250.000000" preserveAspectRatio="xMidYMid meet">

    <g transform="translate(0.000000,1500.000000) scale(0.100000,-0.100000)" fill="#FFFFFF" stroke="none">
        <path d="M5343 12389 c-24 -4 -62 -17 -85 -27 -24 -11 -280 -221 -570 -466
-520 -440 -527 -447 -560 -514 l-33 -67 -3 -2625 -2 -2625 20 -69 c30 -96 90
-156 187 -186 67 -20 83 -21 773 -18 681 3 706 4 747 23 38 18 1033 836 1106
910 17 16 42 55 56 85 25 53 26 62 31 305 l5 250 145 12 c357 31 585 87 835
208 132 63 206 115 441 310 958 796 978 814 1075 963 126 192 203 441 228 737
14 157 14 1266 1 1415 -28 307 -116 587 -241 771 -60 89 -184 215 -277 282
-270 195 -607 295 -1097 327 -192 12 -2719 12 -2782 -1z m2997 -92 c347 -53
570 -128 772 -259 263 -172 417 -397 502 -733 53 -211 56 -270 56 -998 0 -409
-4 -706 -10 -757 -34 -270 -115 -508 -232 -677 -175 -253 -469 -432 -849 -517
-254 -56 -303 -59 -996 -64 l-643 -3 0 -669 c0 -446 -4 -686 -11 -720 -14 -66
-62 -127 -124 -159 l-49 -26 -696 0 c-559 0 -702 3 -733 14 -50 17 -103 64
-130 115 l-22 41 0 2630 0 2630 24 48 c25 52 71 92 128 113 32 11 282 13 1468
11 1296 -3 1441 -5 1545 -20z"/>
        <path d="M6040 9520 l0 -2100 40 0 40 0 0 764 0 765 943 4 c816 4 955 6 1037
21 159 27 250 55 359 107 89 44 116 63 191 137 123 122 169 220 217 457 16 80
18 148 18 595 0 555 -4 602 -65 790 -92 283 -320 462 -670 524 -176 32 -312
36 -1207 36 l-903 0 0 -2100z m2091 1993 c216 -48 335 -107 454 -227 56 -56
93 -104 119 -154 47 -92 91 -263 105 -413 14 -145 14 -740 1 -884 -13 -140
-51 -296 -93 -388 -95 -205 -293 -335 -597 -393 -87 -17 -178 -19 -1047 -22
l-953 -3 0 1256 0 1256 958 -4 c928 -3 960 -4 1053 -24z"/>
        <path d="M6920 10275 l0 -585 378 0 c231 0 401 4 437 11 104 19 161 60 205
148 41 81 50 159 50 431 0 277 -9 350 -53 436 -31 61 -58 87 -122 116 -49 23
-56 23 -472 26 l-423 3 0 -586z"/>
        <path d="M11093 12390 c-24 -5 -62 -18 -85 -28 -24 -11 -279 -219 -568 -463
-521 -441 -525 -445 -560 -514 l-35 -70 -3 -2625 -2 -2625 20 -69 c30 -96 90
-156 187 -186 67 -20 83 -20 768 -18 692 3 701 3 745 24 58 28 1085 881 1127
936 63 85 66 106 71 491 l4 347 41 0 c61 0 119 -32 148 -83 l24 -42 6 -705 c6
-734 6 -735 49 -821 26 -49 88 -103 146 -125 46 -18 87 -19 769 -19 l720 0 47
22 c53 24 1078 871 1128 931 17 20 39 66 50 101 19 61 20 96 20 993 0 1009 -1
1037 -56 1225 -98 340 -359 616 -681 724 l-63 21 64 69 c109 118 177 281 210
502 21 137 30 518 18 728 -34 565 -224 903 -622 1104 -161 81 -319 126 -566
161 -107 16 -265 18 -1599 20 -814 1 -1499 -2 -1522 -6z m3048 -85 c256 -27
439 -77 611 -167 342 -179 520 -472 569 -935 16 -162 6 -740 -16 -853 -53
-279 -153 -433 -352 -546 l-51 -30 79 -12 c377 -60 690 -333 798 -697 55 -187
54 -169 58 -1154 3 -590 1 -937 -6 -979 -15 -96 -51 -150 -126 -187 l-60 -30
-695 0 -695 0 -55 27 c-31 15 -66 41 -78 58 -52 70 -52 66 -52 739 0 344 -5
666 -10 716 -13 130 -46 190 -124 230 l-60 30 -598 3 -598 3 0 -794 c0 -883 1
-862 -66 -937 -70 -77 -43 -75 -814 -75 -551 0 -693 3 -723 14 -50 17 -103 64
-130 115 l-22 41 0 2630 0 2630 24 48 c25 52 71 92 128 113 58 20 2870 20
3064 -1z"/>
        <path d="M11760 9520 l0 -2100 40 0 40 0 0 900 0 901 1218 -4 c1316 -3 1245
-1 1405 -56 218 -76 356 -226 419 -456 21 -78 22 -98 26 -682 l3 -603 35 0 35
0 -4 623 c-3 601 -4 625 -25 697 -60 211 -173 351 -354 440 -150 72 -328 109
-538 111 -78 0 -90 2 -70 11 160 70 255 146 308 245 39 73 77 189 98 301 26
128 33 958 10 1090 -22 129 -68 247 -137 350 -108 166 -241 253 -469 309 -57
15 -184 17 -1052 20 l-988 4 0 -2101z m2020 2000 c308 -63 505 -283 555 -619
18 -118 21 -731 4 -897 -23 -226 -92 -412 -194 -522 -92 -100 -233 -159 -430
-182 -54 -6 -445 -10 -982 -10 l-893 0 0 1125 0 1125 923 0 c875 0 927 -1
1017 -20z"/>
        <path d="M12680 10420 l0 -500 293 0 c160 0 325 5 364 10 198 26 259 123 270
425 10 300 -26 442 -129 511 -70 47 -133 54 -486 54 l-312 0 0 -500z"/>
        <path d="M10024 3930 c-111 -23 -209 -102 -263 -212 l-32 -63 58 -17 c32 -10
63 -18 70 -18 7 0 22 21 33 48 44 99 122 151 225 152 83 0 142 -30 175 -90 22
-39 25 -57 25 -135 -1 -149 -14 -171 -347 -569 l-218 -260 0 -73 0 -73 350 0
350 0 0 65 0 65 -265 0 c-146 0 -265 2 -265 5 0 3 86 105 191 228 204 238 293
360 330 454 19 47 23 78 23 163 1 95 -2 110 -27 162 -34 69 -91 121 -165 148
-62 24 -186 34 -248 20z"/>
        <path d="M12034 3930 c-111 -23 -208 -102 -263 -212 l-32 -63 53 -17 c79 -25
85 -24 108 30 44 99 122 151 225 152 83 0 142 -30 175 -90 22 -39 25 -57 25
-135 -1 -146 -21 -178 -344 -565 l-221 -264 0 -73 0 -73 350 0 350 0 0 65 0
65 -265 0 c-146 0 -265 2 -265 5 0 3 86 105 191 228 306 356 352 437 353 617
1 96 -1 110 -27 162 -34 69 -91 121 -165 148 -62 24 -186 34 -248 20z"/>
        <path d="M10984 3900 c-183 -60 -274 -275 -274 -645 0 -256 43 -434 131 -546
62 -79 213 -125 331 -100 80 16 123 39 174 93 85 88 130 224 143 430 14 245
-12 461 -73 594 -33 72 -109 146 -171 168 -79 27 -188 30 -261 6z m198 -110
c18 0 72 -58 93 -100 55 -109 80 -325 64 -565 -9 -143 -26 -220 -63 -293 -42
-83 -89 -112 -177 -112 -163 0 -239 169 -239 530 0 356 65 525 210 550 19 3
51 3 70 -2 19 -4 38 -8 42 -8z"/>
        <path d="M12826 3888 c-3 -18 -10 -136 -16 -263 -6 -126 -13 -258 -16 -291
l-6 -62 60 -7 c57 -6 61 -5 106 28 95 73 233 71 303 -5 49 -52 67 -115 67
-233 1 -123 -10 -170 -54 -237 -83 -126 -278 -132 -363 -11 -17 23 -34 43 -38
43 -13 0 -119 -50 -119 -56 0 -19 77 -107 117 -133 65 -43 114 -56 218 -55
115 1 184 26 260 96 88 80 135 201 135 347 0 197 -71 334 -198 382 -83 31
-215 24 -291 -15 l-54 -28 7 164 c4 89 9 182 13 206 l5 42 224 0 224 0 0 60 0
60 -290 0 -289 0 -5 -32z"/>
        <path d="M8180 3756 c0 -57 -3 -111 -6 -120 -5 -12 -21 -16 -74 -16 l-67 0 -7
-37 c-13 -84 -15 -83 68 -83 l75 0 3 -357 c3 -338 4 -361 24 -403 25 -55 81
-105 131 -119 74 -21 243 -5 243 22 -1 34 -29 102 -41 99 -89 -23 -171 -2
-196 48 -9 19 -13 114 -13 368 l0 342 105 0 105 0 0 60 0 60 -105 0 -105 0 0
120 0 120 -70 0 -70 0 0 -104z"/>
        <path d="M6552 3635 c-70 -20 -87 -29 -145 -84 -89 -83 -134 -204 -144 -386
-15 -285 78 -478 262 -542 60 -21 209 -24 272 -5 56 17 155 85 193 131 l30 39
-57 33 -56 34 -56 -55 c-61 -61 -106 -80 -187 -80 -140 0 -231 110 -250 303
l-7 67 313 0 313 0 -7 103 c-15 235 -81 371 -210 428 -64 28 -190 35 -264 14z
m213 -124 c58 -33 96 -117 111 -243 l6 -58 -235 0 -236 0 5 38 c22 156 89 258
189 283 42 11 125 1 160 -20z"/>
        <path d="M7427 3627 c-126 -44 -186 -127 -187 -256 0 -61 5 -82 27 -122 42
-78 100 -114 268 -169 154 -50 205 -95 205 -183 0 -81 -46 -140 -129 -164 -96
-28 -188 0 -255 78 l-36 43 -60 -29 c-33 -16 -60 -30 -60 -32 0 -16 36 -66 69
-96 53 -48 103 -73 179 -87 172 -34 342 34 409 164 36 68 39 189 6 251 -44 83
-107 125 -278 185 -137 48 -172 69 -191 116 -56 133 73 245 229 200 53 -15 78
-36 117 -95 l15 -23 60 26 c32 15 61 28 63 30 8 8 -49 86 -81 110 -98 75 -247
96 -370 53z"/>
        <path d="M8730 2710 l0 -90 90 0 90 0 0 90 0 90 -90 0 -90 0 0 -90z"/>
    </g>
</svg>