<svg xmlns="http://www.w3.org/2000/svg" width="1600" height="1600" viewBox="0 0 1600 1600" version="1.1"><path d="M 770.500 153.032 C 762.800 153.473, 748.175 154.304, 738 154.880 C 727.825 155.456, 717.925 156.352, 716 156.872 C 714.075 157.391, 709.575 158.107, 706 158.463 C 692.986 159.756, 670.650 164.133, 649.500 169.535 C 646.200 170.378, 639.900 171.985, 635.500 173.106 C 631.100 174.227, 626.150 175.615, 624.500 176.191 C 622.850 176.767, 618.951 177.809, 615.835 178.508 C 612.719 179.206, 609.646 180.101, 609.004 180.497 C 608.363 180.894, 605.512 181.799, 602.669 182.510 C 599.826 183.220, 593.679 185.196, 589.008 186.901 C 584.338 188.605, 579.831 190, 578.993 190 C 578.156 190, 575.902 190.840, 573.985 191.867 C 572.068 192.893, 568.925 194.050, 567 194.438 C 565.075 194.825, 561.700 195.969, 559.500 196.980 C 557.300 197.991, 553.025 199.813, 550 201.029 C 546.975 202.245, 542.651 204.086, 540.390 205.120 C 538.130 206.154, 535.726 207, 535.048 207 C 534.370 207, 532.671 207.900, 531.273 209 C 529.874 210.100, 527.693 211, 526.424 211 C 525.156 211, 523.849 211.436, 523.520 211.968 C 523.191 212.500, 518.102 215.223, 512.211 218.019 C 506.320 220.814, 500.825 223.532, 500 224.058 C 499.175 224.584, 497.375 225.564, 496 226.236 C 491.392 228.487, 481.561 234.233, 474.782 238.636 C 471.088 241.036, 467.655 243, 467.155 243 C 466.654 243, 465.777 243.564, 465.205 244.253 C 464.633 244.942, 461.316 246.999, 457.833 248.823 C 448.842 253.533, 424.298 269.800, 407 282.513 C 402.875 285.545, 397.840 289.133, 395.811 290.487 C 393.782 291.840, 390.805 294.197, 389.195 295.724 C 387.585 297.251, 385.413 299.175, 384.368 300 C 361.314 318.210, 339.155 339.853, 311.394 371.275 C 304.968 378.549, 298.724 385.400, 297.520 386.500 C 294.559 389.204, 274.443 414.339, 271.465 419.056 C 270.154 421.133, 268.588 423.136, 267.986 423.509 C 267.384 423.881, 264.452 427.856, 261.471 432.343 C 258.490 436.829, 254.112 443.200, 251.742 446.500 C 247.399 452.549, 239.001 466.610, 238.999 467.838 C 238.998 468.202, 237.198 471.092, 234.999 474.261 C 232.799 477.429, 231 480.233, 231 480.491 C 231 480.750, 229.512 483.332, 227.694 486.231 C 224.473 491.365, 221.814 496.684, 209.062 523.500 C 205.663 530.650, 202.006 538.300, 200.938 540.500 C 199.869 542.700, 198.996 544.865, 198.997 545.311 C 198.999 545.757, 197.200 549.946, 195 554.620 C 192.800 559.294, 191 563.555, 191 564.089 C 191 565.256, 186.412 576.687, 184.824 579.477 C 184.205 580.565, 183.126 583.490, 182.425 585.977 C 181.724 588.465, 179.968 593.650, 178.522 597.500 C 177.075 601.350, 175.278 606.975, 174.526 610 C 172.541 617.996, 169.336 628.494, 168.225 630.641 C 167.696 631.663, 166.942 634.277, 166.549 636.449 C 166.156 638.621, 165.197 641.308, 164.417 642.421 C 163.638 643.534, 163 645.484, 163 646.755 C 163 648.025, 162.286 650.737, 161.413 652.782 C 160.539 654.827, 159.224 660.325, 158.490 665 C 157.023 674.344, 155.662 680.160, 153.341 687 C 152.448 689.632, 151.248 699.802, 150.450 711.500 C 149.700 722.500, 148.602 734.875, 148.010 739 C 146.618 748.703, 145.862 834.599, 147.060 847 C 147.565 852.225, 148.630 865.306, 149.428 876.069 C 150.399 889.187, 151.511 897.593, 152.800 901.569 C 155.156 908.833, 159 925.002, 159 927.644 C 159 928.709, 159.716 932.262, 160.592 935.540 C 161.467 938.818, 163.684 947.800, 165.517 955.500 C 169.994 974.298, 176.026 995.023, 181.088 1009 C 183.378 1015.325, 186.784 1024.775, 188.657 1030 C 190.529 1035.225, 192.669 1040.850, 193.411 1042.500 C 194.153 1044.150, 196.262 1049.316, 198.098 1053.979 C 203.894 1068.703, 225.784 1111.061, 235.220 1125.812 C 236.165 1127.290, 237.690 1129.850, 238.607 1131.500 C 239.524 1133.150, 241.481 1136.075, 242.957 1138 C 244.433 1139.925, 246.637 1143.456, 247.854 1145.846 C 249.825 1149.715, 253.616 1155.341, 266.717 1173.842 C 268.798 1176.780, 272.300 1181.348, 274.500 1183.994 C 280.401 1191.090, 284.738 1196.413, 292 1205.476 C 314.116 1233.076, 342.599 1261.517, 371.592 1284.949 C 380.881 1292.457, 392.839 1302.224, 401.105 1309.055 C 403.087 1310.694, 406.912 1313.459, 409.605 1315.201 C 412.297 1316.942, 416.750 1320.223, 419.500 1322.491 C 424.455 1326.577, 439.680 1337, 440.695 1337 C 440.985 1337, 443.310 1338.717, 445.861 1340.815 C 455.993 1349.146, 475.657 1360.968, 498.500 1372.461 C 525.632 1386.112, 532.931 1389.449, 549 1395.549 C 553.125 1397.114, 557.388 1398.982, 558.473 1399.698 C 559.557 1400.414, 561.296 1401, 562.336 1401 C 563.377 1401, 565.864 1401.857, 567.864 1402.905 C 572.016 1405.080, 581.605 1408.508, 587.500 1409.925 C 593.168 1411.287, 601.065 1413.934, 604 1415.454 C 605.375 1416.167, 608.750 1417.075, 611.500 1417.473 C 614.250 1417.872, 617.385 1418.671, 618.467 1419.250 C 621.001 1420.606, 632.426 1423.599, 642 1425.415 C 646.125 1426.198, 650.625 1427.268, 652 1427.795 C 653.375 1428.321, 656.975 1429.084, 660 1429.491 C 663.025 1429.898, 666.364 1430.685, 667.421 1431.242 C 668.477 1431.798, 673.427 1432.840, 678.421 1433.557 C 683.414 1434.274, 690.200 1435.505, 693.500 1436.292 C 712.766 1440.887, 762.076 1445.205, 797.500 1445.399 C 815.219 1445.496, 850.708 1443.727, 864.500 1442.060 C 868.900 1441.528, 877.675 1440.623, 884 1440.049 C 890.325 1439.475, 899.550 1438.088, 904.500 1436.966 C 909.450 1435.845, 917.211 1434.500, 921.748 1433.978 C 926.284 1433.456, 931.503 1432.399, 933.345 1431.629 C 935.187 1430.859, 939.117 1429.897, 942.077 1429.489 C 945.038 1429.082, 949.044 1428.193, 950.980 1427.514 C 952.916 1426.835, 957.200 1425.945, 960.499 1425.537 C 963.798 1425.128, 967.714 1424.165, 969.199 1423.397 C 970.685 1422.629, 972.936 1421.980, 974.200 1421.956 C 975.465 1421.932, 978.300 1421.230, 980.500 1420.395 C 982.700 1419.561, 986.750 1418.262, 989.500 1417.510 C 996.194 1415.677, 1003.798 1413.155, 1007.649 1411.490 C 1009.381 1410.741, 1012.531 1409.840, 1014.649 1409.487 C 1016.767 1409.134, 1019.850 1408.253, 1021.500 1407.529 C 1026.746 1405.228, 1035.359 1402.155, 1039.708 1401.032 C 1042.022 1400.434, 1044.186 1399.508, 1044.517 1398.973 C 1044.847 1398.438, 1045.879 1397.996, 1046.809 1397.991 C 1047.739 1397.986, 1050.750 1396.875, 1053.500 1395.522 C 1056.250 1394.169, 1058.941 1393.048, 1059.481 1393.031 C 1061.427 1392.969, 1072.610 1388.361, 1087.253 1381.587 C 1091.517 1379.614, 1095.293 1378, 1095.643 1378 C 1095.994 1378, 1098.130 1377.116, 1100.390 1376.035 C 1102.651 1374.955, 1106.075 1373.389, 1108 1372.555 C 1109.925 1371.722, 1112.175 1370.638, 1113 1370.146 C 1113.825 1369.654, 1122.100 1365.482, 1131.388 1360.876 C 1140.676 1356.269, 1150.801 1350.825, 1153.888 1348.778 C 1156.975 1346.731, 1159.812 1345.044, 1160.192 1345.028 C 1161.253 1344.985, 1174.014 1336.980, 1178.361 1333.631 C 1180.485 1331.995, 1184.957 1328.821, 1188.299 1326.578 C 1191.642 1324.335, 1195.365 1321.825, 1196.573 1321 C 1210.628 1311.403, 1243.788 1277.889, 1249.013 1268 C 1250.031 1266.075, 1254.776 1260.450, 1259.559 1255.500 C 1264.342 1250.550, 1272.347 1242, 1277.349 1236.500 C 1282.351 1231, 1287.806 1225.123, 1289.472 1223.440 C 1301.727 1211.056, 1329.065 1176.894, 1337.541 1163.374 C 1339.686 1159.951, 1343.264 1154.556, 1349.167 1145.841 C 1351.275 1142.729, 1353 1139.746, 1353 1139.213 C 1353 1138.681, 1353.701 1137.663, 1354.558 1136.952 C 1355.415 1136.241, 1356.753 1134.273, 1357.531 1132.580 C 1359.919 1127.384, 1366.360 1115.745, 1369.473 1111 C 1373.172 1105.361, 1374.155 1103.593, 1381.298 1089.743 C 1384.487 1083.559, 1387.492 1077.825, 1387.977 1077 C 1389.479 1074.445, 1393 1066.413, 1393 1065.544 C 1393 1065.090, 1393.943 1062.645, 1395.096 1060.110 C 1399.465 1050.500, 1400.833 1047.205, 1404.690 1037 C 1406.873 1031.225, 1409.229 1024.925, 1409.926 1023 C 1410.623 1021.075, 1412.306 1016.575, 1413.667 1013 C 1415.027 1009.425, 1416.550 1004.558, 1417.052 1002.185 C 1417.554 999.811, 1418.611 996.661, 1419.402 995.185 C 1421.348 991.553, 1423.963 983.484, 1424.974 977.990 C 1425.430 975.509, 1426.471 971.909, 1427.287 969.990 C 1428.698 966.669, 1431.905 953.279, 1433.871 942.500 C 1435.050 936.038, 1437.821 924.705, 1439.601 919.072 C 1440.370 916.636, 1440.996 913.486, 1440.990 912.072 C 1440.985 910.657, 1441.860 905, 1442.936 899.500 C 1447.582 875.744, 1449.183 861.534, 1450.074 836.137 C 1450.569 822.037, 1451.412 806.225, 1451.947 801 C 1453.104 789.705, 1453.035 758.183, 1451.834 749 C 1451.366 745.425, 1450.567 737.792, 1450.057 732.039 C 1448.775 717.554, 1445.077 692.019, 1443.825 689 C 1443.255 687.625, 1442.204 682.900, 1441.490 678.500 C 1439.353 665.321, 1436.856 653.627, 1435.726 651.501 C 1435.141 650.401, 1434.117 646.801, 1433.450 643.501 C 1431.698 634.835, 1428.456 622.730, 1427.277 620.457 C 1426.720 619.380, 1425.962 616.832, 1425.594 614.792 C 1425.226 612.753, 1424.270 609.828, 1423.469 608.292 C 1422.668 606.757, 1422.007 604.600, 1422 603.500 C 1421.993 602.400, 1421.269 600.150, 1420.390 598.500 C 1418.811 595.537, 1415.887 587.740, 1413.852 581.065 C 1413.275 579.176, 1412.217 576.701, 1411.500 575.565 C 1410.783 574.429, 1409.870 571.925, 1409.470 570 C 1409.071 568.075, 1408.127 565.612, 1407.372 564.527 C 1406.618 563.443, 1406 561.591, 1406 560.412 C 1406 559.234, 1405.100 557.126, 1404 555.727 C 1402.900 554.329, 1402 552.674, 1402 552.051 C 1402 550.349, 1396.175 538.226, 1395.011 537.507 C 1394.455 537.163, 1394 536.160, 1394 535.277 C 1394 534.394, 1392.341 530.258, 1390.314 526.086 C 1388.286 521.913, 1386.120 517.128, 1385.501 515.451 C 1384.881 513.774, 1382.715 509.903, 1380.687 506.848 C 1378.659 503.793, 1377 500.834, 1377 500.272 C 1377 499.384, 1373.883 493.567, 1370.959 489 C 1370.431 488.175, 1369.530 486.375, 1368.956 485 C 1367.563 481.658, 1365.649 478.397, 1363.825 476.257 C 1363.002 475.291, 1360.192 470.744, 1357.582 466.154 C 1352.946 458.003, 1347.093 448.836, 1341.019 440.215 C 1339.359 437.858, 1338 435.673, 1338 435.359 C 1338 435.045, 1336.856 433.374, 1335.458 431.644 C 1334.059 429.915, 1332.262 427.600, 1331.464 426.500 C 1330.666 425.400, 1327.993 421.928, 1325.523 418.785 C 1323.054 415.641, 1319.269 410.527, 1317.113 407.419 C 1314.957 404.311, 1311.683 400.133, 1309.837 398.134 C 1307.991 396.135, 1305.135 392.511, 1303.491 390.079 C 1298.426 382.593, 1278.661 360.752, 1260.930 343.050 C 1243.079 325.227, 1218.378 302.553, 1213.368 299.390 C 1211.790 298.395, 1209.394 296.517, 1208.042 295.219 C 1206.690 293.920, 1202.865 290.848, 1199.542 288.392 C 1184.704 277.426, 1180.593 274.304, 1177.163 271.396 C 1170.265 265.551, 1141.810 247.041, 1130 240.718 C 1126.975 239.098, 1123.790 237.149, 1122.921 236.386 C 1122.053 235.624, 1120.975 235, 1120.525 235 C 1120.075 235, 1117.410 233.487, 1114.604 231.637 C 1111.797 229.787, 1106.125 226.599, 1102 224.553 C 1097.875 222.506, 1093.375 220.201, 1092 219.431 C 1090.625 218.660, 1088.739 218.023, 1087.809 218.015 C 1086.879 218.007, 1085.845 217.559, 1085.512 217.019 C 1084.898 216.025, 1076.626 211.894, 1067.500 208.023 C 1064.750 206.857, 1061.226 205.249, 1059.669 204.451 C 1058.112 203.653, 1056.318 203, 1055.683 203 C 1055.048 203, 1052.047 201.829, 1049.014 200.399 C 1038.912 195.633, 1037.553 195.081, 1028.500 192.053 C 1023.550 190.398, 1016.350 187.862, 1012.500 186.418 C 1008.650 184.974, 1003.311 183.176, 1000.634 182.423 C 997.958 181.669, 995.258 180.631, 994.634 180.115 C 994.011 179.599, 991.250 178.707, 988.500 178.132 C 985.750 177.558, 979.450 175.919, 974.500 174.490 C 969.550 173.061, 963.025 171.268, 960 170.504 C 956.975 169.741, 952.025 168.452, 949 167.640 C 940.460 165.349, 929.995 163.156, 924.500 162.507 C 921.750 162.182, 916.575 161.277, 913 160.495 C 904.034 158.535, 872.304 154.824, 856 153.829 C 835.651 152.587, 786.332 152.127, 770.500 153.032 M 779.500 156.101 C 732.807 157.068, 709.312 159.525, 670.333 167.514 C 661.376 169.350, 618.574 180.397, 610.500 182.957 C 564.510 197.537, 546.055 204.582, 517.119 218.603 C 493.342 230.124, 459.006 250.175, 432 268.308 C 402.880 287.861, 383.785 302.735, 359 325.174 C 346.407 336.574, 309.556 376.389, 291.132 398.500 C 275.389 417.393, 253.098 448.090, 245.021 462 C 242.625 466.125, 237.314 475.079, 233.217 481.898 C 229.121 488.717, 223.521 499.067, 220.773 504.898 C 218.025 510.729, 213.385 520.450, 210.462 526.500 C 196.944 554.480, 179.505 598.813, 176.532 612.758 C 176.150 614.549, 173.435 623.335, 170.498 632.282 C 165.233 648.321, 161.837 660.672, 160.540 668.500 C 160.175 670.700, 158.575 678.125, 156.983 685 C 153.794 698.778, 153.508 701.072, 151.992 725 C 151.417 734.075, 150.584 744.650, 150.140 748.500 C 148.723 760.813, 149.611 840.409, 151.423 863.500 C 153.221 886.412, 154.129 892.901, 157.015 903.500 C 158.064 907.350, 160.294 917.025, 161.972 925 C 167.602 951.767, 168.975 957.417, 174.485 976.500 C 194.912 1047.243, 217.194 1095.083, 258.554 1157 C 279.968 1189.058, 314.983 1230.361, 342.748 1256.314 C 362.336 1274.623, 399.888 1305.202, 421.405 1320.363 C 443.697 1336.070, 446.088 1337.721, 460.751 1347.523 C 480.896 1360.989, 521.378 1381.788, 544.500 1390.552 C 547.800 1391.803, 553.649 1394.247, 557.499 1395.983 C 561.348 1397.719, 570.798 1401.184, 578.499 1403.682 C 586.199 1406.180, 596.241 1409.522, 600.814 1411.107 C 614.733 1415.932, 667.937 1429.037, 681.500 1430.981 C 685.900 1431.611, 691.975 1432.779, 695 1433.576 C 711.503 1437.922, 784.209 1443.164, 809.884 1441.858 C 816.823 1441.505, 832.625 1440.698, 845 1440.064 C 867.482 1438.912, 896.485 1435.874, 903.032 1433.985 C 904.939 1433.435, 910.775 1432.310, 916 1431.484 C 921.225 1430.659, 931.350 1428.652, 938.500 1427.023 C 945.650 1425.395, 956.554 1422.950, 962.730 1421.590 C 982.024 1417.344, 1023.323 1403.805, 1060.380 1389.578 C 1085.644 1379.879, 1129.169 1359.419, 1150.299 1347.309 C 1191.535 1323.677, 1222.778 1297.915, 1242.847 1271 C 1247.563 1264.675, 1260.920 1249.375, 1272.529 1237 C 1294.978 1213.069, 1312.917 1192.412, 1322.519 1179.435 C 1330.305 1168.912, 1349.463 1140.284, 1354.597 1131.500 C 1380.202 1087.686, 1387.492 1073.326, 1398.460 1045.102 C 1412.574 1008.782, 1421.905 980.498, 1427.523 957.001 C 1436.082 921.201, 1437.906 912.287, 1441.434 889 C 1443.392 876.075, 1445.253 864.150, 1445.568 862.500 C 1446.338 858.476, 1447.961 816.920, 1448.674 783 C 1449.266 754.809, 1448.987 749.895, 1444.867 716 C 1440.020 676.126, 1427.833 625.790, 1414.483 590.500 C 1405.072 565.622, 1401.922 557.759, 1396.254 545 C 1389.944 530.795, 1379.021 508.434, 1374.516 500.500 C 1373.267 498.300, 1370.600 493.449, 1368.588 489.719 C 1356.899 468.045, 1341.556 444.590, 1322.003 418.500 C 1293.940 381.055, 1273.780 358.333, 1243.723 330.272 C 1217.618 305.900, 1213.573 302.496, 1184.697 280.603 C 1162.532 263.799, 1137.399 247.484, 1114 234.714 C 1110.975 233.063, 1108.050 231.372, 1107.500 230.957 C 1106.950 230.541, 1097.816 225.864, 1087.202 220.563 C 1061.527 207.741, 1040.286 199.052, 1003.500 186.323 C 991.048 182.014, 946.257 169.728, 935.500 167.671 C 915.376 163.821, 895.882 160.958, 877 159.080 C 851.473 156.540, 823.133 154.764, 814.813 155.182 C 811.341 155.357, 795.450 155.770, 779.500 156.101 M 731 193.619 C 728.525 193.809, 719.300 194.444, 710.500 195.030 C 671.421 197.631, 628.686 204.820, 603.506 213.028 C 573.547 222.795, 546.516 237.302, 550.141 241.670 C 551.413 243.203, 556.761 243.422, 560.278 242.084 C 563.113 241.007, 599.887 235.601, 615 234.041 C 644.934 230.950, 701.568 229.972, 731 232.037 C 778.455 235.368, 837.765 251.592, 898.810 277.942 C 913.511 284.288, 950.249 304.440, 964.305 313.869 C 980.575 324.782, 984.007 327.265, 995.155 336.188 C 1006.886 345.577, 1030.726 366.936, 1042.941 379 C 1051.326 387.281, 1079.724 418.884, 1088.769 430 C 1098.570 442.045, 1116.309 468.001, 1126.888 485.778 C 1133.068 496.161, 1146.621 522.448, 1151.492 533.500 C 1165.286 564.791, 1179.054 611.134, 1182.983 639.500 C 1183.593 643.900, 1184.521 649.938, 1185.046 652.917 C 1186.248 659.740, 1186.269 664.284, 1185.095 663.559 C 1183.236 662.410, 1178.143 652.049, 1172.530 638 C 1169.344 630.025, 1165.721 621.475, 1164.479 619 C 1163.237 616.525, 1160.571 610.225, 1158.555 605 C 1156.538 599.775, 1153.403 592.800, 1151.587 589.500 C 1149.771 586.200, 1145.943 578.269, 1143.079 571.875 C 1140.215 565.481, 1136.041 557.156, 1133.802 553.375 C 1131.564 549.594, 1128.147 543.575, 1126.210 540 C 1116.718 522.484, 1096.952 493.685, 1082.622 476.491 C 1056.207 444.798, 1043.185 431.480, 1020.052 412.500 C 1012.678 406.450, 1003.688 399.002, 1000.073 395.949 C 964.810 366.165, 914.561 336.453, 866 316.672 C 849.985 310.148, 809.503 297.141, 797 294.502 C 790.125 293.051, 781.350 291.021, 777.500 289.992 C 773.650 288.962, 762.175 286.958, 752 285.538 C 741.825 284.118, 729.450 282.328, 724.500 281.560 C 708.558 279.086, 662.853 277.577, 642.500 278.854 C 615.250 280.563, 579.403 286.331, 557 292.611 C 495.494 309.854, 454.879 328.183, 409.500 359.174 C 400.700 365.184, 390.527 372.441, 386.894 375.301 C 342.773 410.026, 315.638 437.652, 283.568 480.500 C 274.075 493.184, 251 527.148, 251 528.438 C 251 528.660, 248.818 532.620, 246.151 537.238 C 221.080 580.650, 198.602 637.099, 189.502 679.500 C 188.085 686.100, 185.599 700.725, 183.977 712 C 182.355 723.275, 180.150 738.410, 179.077 745.633 C 176.415 763.556, 177.738 768.513, 182.044 756.750 C 183.303 753.313, 185.579 747.983, 187.102 744.906 C 188.625 741.829, 191.544 735.079, 193.587 729.906 C 195.631 724.733, 198.641 718.025, 200.277 715 C 201.913 711.975, 205.608 705, 208.489 699.500 C 216.810 683.614, 224.494 671.230, 234.551 657.500 C 237.371 653.650, 241.853 646.728, 244.512 642.117 C 252.358 628.511, 281.033 599.179, 295.500 589.960 C 346.122 557.703, 375.331 543.989, 418.950 531.998 C 432.945 528.150, 474.564 520.693, 478.437 521.338 C 480.122 521.619, 487.800 521.365, 495.500 520.773 C 533.838 517.828, 585.142 525.725, 623.500 540.477 C 641.601 547.439, 641.656 547.463, 669 560.711 C 710.573 580.854, 706.274 578.216, 731.411 599 C 744.266 609.629, 779.185 644.725, 788.123 656 C 792.265 661.225, 799.086 670.056, 803.282 675.623 C 817.172 694.057, 817.225 694.075, 846.868 690.617 C 874.772 687.362, 894.765 685.978, 913.681 685.990 C 931.495 686.002, 969.911 689.282, 978.454 691.521 C 981.728 692.379, 988.703 693.994, 993.954 695.109 C 1010.289 698.580, 1043.528 709.823, 1063.153 718.515 C 1105.229 737.151, 1140.183 761.975, 1169.898 794.324 C 1197.860 824.765, 1208.342 838.207, 1222.275 861.500 C 1237.537 887.013, 1250.524 919.720, 1255.543 945.284 C 1263.610 986.380, 1262.230 1049.173, 1252.395 1088.500 C 1247.996 1106.091, 1229.011 1155.579, 1220.745 1171 C 1219.419 1173.475, 1215.918 1180.225, 1212.966 1186 C 1199.634 1212.081, 1173.159 1251.441, 1157.473 1268.500 C 1151.604 1274.882, 1149.207 1278.297, 1148.442 1281.361 C 1147.777 1284.024, 1147.892 1284.171, 1150.114 1283.496 C 1152.857 1282.663, 1159.658 1277.651, 1169 1269.579 C 1172.575 1266.490, 1179.948 1260.299, 1185.385 1255.823 C 1199.029 1244.588, 1231.644 1211.969, 1243.599 1197.602 C 1292.530 1138.799, 1317.640 1099.707, 1345.424 1039.078 C 1356.506 1014.896, 1368.323 980.485, 1375.844 950.500 C 1382.461 924.114, 1384.592 912.639, 1388.073 884.617 C 1389.158 875.882, 1390.248 868.408, 1390.494 868.009 C 1390.741 867.611, 1391.667 859.908, 1392.553 850.892 C 1394.563 830.445, 1394.909 764.533, 1393.101 746.500 C 1390.397 719.522, 1385.060 690.176, 1377.370 660 C 1364.931 611.194, 1352.155 576.818, 1330.986 535.195 C 1309.513 492.975, 1285.477 455.961, 1254.230 417 C 1244.907 405.375, 1221.865 380.529, 1212.518 372.023 C 1209.208 369.010, 1201.760 362.019, 1195.968 356.486 C 1166.925 328.749, 1111.438 288.576, 1074.631 268.637 C 1065.745 263.824, 1040.350 251, 1039.703 251 C 1039.440 251, 1034.355 248.709, 1028.403 245.908 C 984.122 225.075, 911.360 204.478, 864.500 199.512 C 861.200 199.162, 853.775 198.228, 848 197.436 C 828.959 194.826, 807.972 193.748, 771.500 193.510 C 751.700 193.380, 733.475 193.430, 731 193.619 M 726 197.077 C 716.375 197.502, 705.350 198.323, 701.500 198.901 C 697.650 199.480, 688.425 200.446, 681 201.048 C 673.575 201.651, 664.800 202.741, 661.500 203.471 C 658.200 204.201, 653.069 205.120, 650.097 205.514 C 647.126 205.908, 643.301 206.794, 641.597 207.485 C 639.894 208.175, 635.406 209.042, 631.625 209.411 C 625.359 210.022, 612.744 213.184, 605.685 215.912 C 604.137 216.510, 601.887 217.014, 600.685 217.031 C 599.483 217.048, 596.250 218.169, 593.500 219.522 C 590.750 220.875, 587.936 221.986, 587.246 221.991 C 586.557 221.996, 584.314 222.900, 582.261 224 C 580.209 225.100, 577.919 226, 577.173 226 C 576.426 226, 574.671 226.900, 573.273 228 C 571.874 229.100, 570.075 230, 569.273 230 C 568.472 230, 566.620 230.919, 565.158 232.043 C 563.696 233.167, 561.375 234.928, 560 235.957 C 555.312 239.465, 558.094 239.491, 577 236.115 C 601.097 231.812, 614.758 230.101, 625.500 230.040 C 631 230.008, 640.900 229.387, 647.500 228.659 C 661.754 227.086, 714.661 227.179, 723 228.791 C 726.025 229.376, 734.972 230.135, 742.882 230.478 C 751.150 230.836, 759.015 231.711, 761.382 232.536 C 763.647 233.325, 766.850 233.987, 768.500 234.006 C 770.150 234.026, 774.425 234.699, 778 235.502 C 781.575 236.306, 786.975 237.437, 790 238.016 C 793.025 238.594, 797.075 239.687, 799 240.443 C 802.213 241.706, 810.466 243.870, 820.500 246.081 C 822.700 246.566, 827.425 248.053, 831 249.385 C 843.616 254.086, 851.768 256.755, 857 257.898 C 858.925 258.318, 861.940 259.413, 863.700 260.331 C 865.461 261.249, 867.621 262, 868.502 262 C 869.383 262, 871.768 262.893, 873.802 263.985 C 879.770 267.188, 888.580 270.997, 890.096 271.032 C 890.868 271.049, 892.374 271.724, 893.441 272.532 C 894.509 273.339, 896.019 274, 896.797 274 C 898.222 274, 917.182 283.109, 919.340 284.830 C 919.978 285.339, 921.525 286.070, 922.778 286.454 C 924.779 287.068, 933.557 291.917, 944.873 298.661 C 946.868 299.850, 951.069 302.196, 954.209 303.875 C 957.349 305.554, 962.299 308.618, 965.209 310.684 C 968.119 312.750, 973.425 316.418, 977 318.835 C 991.276 328.486, 1017.183 349.764, 1027.557 360.357 C 1029.788 362.636, 1034.643 367.141, 1038.347 370.370 C 1042.050 373.598, 1050.062 381.923, 1056.151 388.870 C 1062.240 395.816, 1067.809 401.839, 1068.527 402.253 C 1069.245 402.667, 1072.232 406.031, 1075.166 409.728 C 1078.100 413.426, 1082.902 419.150, 1085.837 422.449 C 1097.574 435.641, 1117.953 464.961, 1127.466 482.344 C 1128.924 485.007, 1131.608 489.308, 1133.430 491.900 C 1135.252 494.492, 1137.082 497.713, 1137.496 499.056 C 1137.911 500.400, 1139.764 504.104, 1141.615 507.287 C 1143.466 510.470, 1145.260 514.186, 1145.601 515.546 C 1145.942 516.906, 1146.563 518.230, 1146.981 518.488 C 1148.681 519.539, 1160.348 545.640, 1161.507 550.985 C 1161.922 552.902, 1162.833 555.377, 1163.531 556.485 C 1165.475 559.574, 1178 597.934, 1178 600.799 C 1178 601.735, 1178.890 605.200, 1179.979 608.500 C 1182.384 615.793, 1186 631.930, 1186 635.372 C 1186 636.749, 1186.647 640.716, 1187.439 644.188 C 1188.230 647.660, 1189.018 654.100, 1189.189 658.500 C 1189.496 666.395, 1189.467 666.503, 1187 666.744 C 1185.625 666.877, 1183.786 666.427, 1182.914 665.744 C 1179.955 663.424, 1175.962 655.993, 1172.429 646.234 C 1170.493 640.885, 1168.479 636.079, 1167.954 635.554 C 1167.429 635.029, 1167 633.769, 1167 632.753 C 1167 631.737, 1165.245 627.664, 1163.101 623.703 C 1160.956 619.741, 1158.891 615.375, 1158.510 614 C 1157.280 609.551, 1152.863 598.643, 1150.007 593 C 1146.667 586.400, 1138.594 569.542, 1133.486 558.500 C 1131.450 554.100, 1129.204 549.825, 1128.494 549 C 1127.784 548.175, 1125.867 545.025, 1124.235 542 C 1122.603 538.975, 1120.419 535.078, 1119.384 533.340 C 1118.348 531.602, 1115.975 527.561, 1114.112 524.360 C 1112.248 521.159, 1108.986 516.188, 1106.862 513.313 C 1104.738 510.438, 1103 507.854, 1103 507.572 C 1103 506.160, 1078.349 474.846, 1066.337 461 C 1057.396 450.694, 1044.104 437.071, 1035.979 429.886 C 1023.547 418.891, 1013.991 410.739, 1008.094 406.094 C 1005.017 403.671, 1000.250 399.599, 997.500 397.046 C 994.750 394.493, 989.800 390.642, 986.500 388.488 C 983.200 386.333, 977.575 382.285, 974 379.491 C 970.425 376.697, 965.475 373.123, 963 371.549 C 957.343 367.951, 954.776 366.232, 948.435 361.792 C 943.249 358.161, 934.076 353, 932.808 353 C 932.419 353, 929.962 351.538, 927.349 349.750 C 922.479 346.418, 919.322 344.649, 909.264 339.615 C 906.094 338.028, 902.825 336.346, 902 335.878 C 898.092 333.661, 887.972 329, 887.067 329 C 886.508 329, 883.226 327.481, 879.775 325.624 C 876.324 323.768, 871.962 321.915, 870.083 321.508 C 868.204 321.101, 865.279 319.922, 863.583 318.888 C 861.887 317.854, 859.825 316.991, 859 316.970 C 858.175 316.949, 855.700 316.063, 853.500 315 C 851.300 313.937, 848.444 313.053, 847.154 313.034 C 845.864 313.015, 843.614 312.331, 842.154 311.514 C 838.912 309.698, 832.189 307.279, 825.500 305.521 C 822.750 304.798, 818.827 303.485, 816.782 302.603 C 814.737 301.722, 812.022 301, 810.747 301 C 809.473 301, 805.870 300.100, 802.740 299 C 799.611 297.900, 795.268 297, 793.090 297 C 790.912 297, 787.863 296.492, 786.315 295.871 C 781.277 293.850, 766.755 290.923, 755 289.559 C 748.675 288.825, 739.900 287.479, 735.500 286.567 C 731.100 285.655, 720.975 284.482, 713 283.961 C 705.025 283.440, 695.350 282.627, 691.500 282.154 C 682.039 280.991, 656.093 280.886, 642 281.953 C 626.287 283.143, 600.051 286.521, 597 287.748 C 595.625 288.301, 591.125 289.064, 587 289.444 C 582.875 289.824, 577.475 290.742, 575 291.484 C 572.525 292.227, 568.700 293.110, 566.500 293.448 C 564.300 293.786, 560.925 294.667, 559 295.405 C 557.075 296.144, 553.475 297.289, 551 297.951 C 539.286 301.083, 533.293 302.829, 531 303.777 C 529.625 304.346, 524.675 306.023, 520 307.505 C 511.119 310.319, 481.598 321.554, 479 323.107 C 478.175 323.601, 476.375 324.476, 475 325.053 C 472.806 325.972, 466.438 329.216, 450 337.790 C 447.525 339.081, 444.600 340.677, 443.500 341.336 C 442.400 341.995, 437 345.205, 431.500 348.469 C 426 351.733, 419.553 355.888, 417.173 357.702 C 414.794 359.516, 412.261 361, 411.546 361 C 410.830 361, 409.627 361.749, 408.872 362.664 C 408.118 363.579, 405.428 365.716, 402.895 367.414 C 396.413 371.757, 379.085 385.050, 375.500 388.428 C 373.850 389.983, 370.156 392.998, 367.290 395.129 C 360.700 400.030, 348.850 411.044, 333.500 426.533 C 318.620 441.549, 313.283 447.665, 295.559 470.014 C 279.274 490.548, 274.951 496.399, 270.882 503.412 C 269.258 506.210, 265.943 511.200, 263.514 514.500 C 261.086 517.800, 257.491 523.293, 255.525 526.706 C 253.560 530.119, 251.562 533.153, 251.086 533.447 C 250.611 533.741, 249.911 535.220, 249.530 536.735 C 249.150 538.250, 248.313 540.107, 247.670 540.862 C 244.041 545.121, 223.670 585.783, 221.549 593 C 220.708 595.865, 217.508 603.262, 215.440 607.126 C 213.902 609.998, 207.682 627.655, 205.514 635.306 C 204.764 637.950, 203.687 640.672, 203.119 641.356 C 202.552 642.040, 201.780 644.602, 201.405 647.050 C 201.029 649.497, 200.163 652.625, 199.479 654 C 198.796 655.375, 197.905 658.525, 197.500 661 C 197.095 663.475, 196.205 666.625, 195.522 668 C 194.839 669.375, 194.016 672.838, 193.693 675.696 C 193.371 678.554, 192.459 682.154, 191.668 683.696 C 190.876 685.238, 189.704 691.985, 189.062 698.690 C 188.420 705.394, 187.468 712.366, 186.947 714.183 C 186.426 716, 185.980 719.740, 185.956 722.493 C 185.932 725.247, 185.450 729.525, 184.884 732 C 182.952 740.452, 182.732 743, 183.933 743 C 185.453 743, 190.998 731.206, 190.999 727.973 C 191 726.582, 191.612 724.557, 192.360 723.473 C 193.108 722.388, 196.052 717, 198.901 711.500 C 201.751 706, 204.477 700.825, 204.959 700 C 205.442 699.175, 206.978 696.185, 208.373 693.356 C 209.768 690.526, 213.452 684.476, 216.560 679.911 C 219.669 675.347, 222.471 670.912, 222.788 670.056 C 223.505 668.123, 226.420 663.869, 231.050 658 C 234.319 653.856, 243 640.408, 243 639.487 C 243 638.687, 248.226 631.406, 251.244 628 C 270.661 606.090, 290.935 588.056, 303 581.964 C 304.375 581.269, 309.369 578.181, 314.099 575.101 C 326.566 566.980, 332.170 563.637, 335 562.629 C 336.375 562.140, 338.175 561.176, 339 560.488 C 339.825 559.800, 341.625 558.903, 343 558.496 C 344.375 558.089, 346.074 557.296, 346.776 556.734 C 348.690 555.202, 365.253 547.001, 366.455 546.991 C 367.030 546.986, 369.750 545.875, 372.500 544.522 C 375.250 543.169, 378.261 542.048, 379.191 542.031 C 380.121 542.014, 381.121 541.613, 381.414 541.139 C 381.998 540.195, 392.285 536.509, 404 533.047 C 408.125 531.827, 413.525 530.163, 416 529.349 C 418.475 528.534, 423.875 527.265, 428 526.530 C 432.125 525.794, 440 524.215, 445.500 523.021 C 463.040 519.211, 471.058 518.225, 490.500 517.487 C 513.828 516.601, 509.309 516.600, 530 517.495 C 549.544 518.340, 576.773 523.031, 601.500 529.813 C 616.442 533.912, 642.598 544.091, 657 551.412 C 661.675 553.788, 668.200 557.113, 671.500 558.801 C 696.668 571.669, 701.445 573.119, 702.633 568.250 C 703.003 566.737, 704.136 564.427, 705.152 563.115 C 706.169 561.803, 707 560.050, 707 559.219 C 707 556.091, 721.332 534.337, 733.798 518.543 C 745.422 503.817, 769.834 482.047, 781.253 476.226 C 784.139 474.755, 788.633 472.077, 791.240 470.276 C 793.847 468.474, 796.485 467, 797.104 467 C 797.722 467, 799.864 466.119, 801.864 465.042 C 803.864 463.965, 807.300 462.352, 809.500 461.459 C 828.906 453.576, 840.141 451.970, 868 453.098 C 890.315 454.001, 893.080 454.326, 902 457.094 C 905.575 458.204, 910.075 459.589, 912 460.173 C 924.128 463.852, 940.810 471.815, 951.500 479.027 C 953.700 480.512, 956.506 482.041, 957.736 482.426 C 960.319 483.235, 973.821 497.709, 980.193 506.500 C 992.573 523.582, 999.465 539.570, 1001.532 556 C 1001.913 559.025, 1002.692 562.078, 1003.264 562.785 C 1004.393 564.181, 1018.064 571, 1019.732 571 C 1020.295 571, 1021.315 571.675, 1022 572.500 C 1022.685 573.325, 1024.066 574, 1025.070 574 C 1026.975 574, 1054.557 584.631, 1061.500 588.041 C 1063.700 589.121, 1066.243 590.004, 1067.151 590.003 C 1068.059 590.001, 1071.209 591.121, 1074.151 592.490 C 1077.093 593.860, 1080.486 594.985, 1081.691 594.990 C 1082.896 594.996, 1084.140 595.417, 1084.455 595.927 C 1084.770 596.437, 1086.709 597.382, 1088.764 598.028 C 1095.082 600.013, 1115.444 608.161, 1116.450 609.107 C 1116.973 609.598, 1118.348 610, 1119.506 610 C 1120.664 610, 1123.136 611.125, 1125 612.500 C 1126.864 613.875, 1128.960 615, 1129.659 615 C 1131.551 615, 1133.255 618.849, 1132.570 621.578 C 1131.812 624.596, 1128.494 625.480, 1121.697 624.474 C 1118.839 624.051, 1078.242 623.612, 1031.481 623.498 C 938.257 623.271, 943.965 623.647, 937.723 617.317 C 936.195 615.767, 932.213 611.125, 928.875 607 C 910.495 584.291, 886.425 567.931, 854 556.108 C 844.351 552.590, 814.073 550.202, 800.053 551.854 C 794.799 552.473, 786.225 553.372, 781 553.852 C 770.986 554.772, 759.527 557.218, 754.500 559.509 C 752.850 560.260, 749.485 561.185, 747.022 561.564 C 744.559 561.943, 741.634 562.842, 740.522 563.561 C 739.410 564.281, 734.675 566.417, 730 568.307 C 717.996 573.161, 714.167 575.122, 713.550 576.730 C 713.034 578.074, 718.583 586, 720.040 586 C 722.362 586, 758.695 619.193, 770.390 632 C 772.651 634.475, 776.975 639.016, 780 642.092 C 785.264 647.444, 805.393 672.677, 810.240 680 C 811.525 681.942, 814.929 684.778, 817.886 686.371 L 823.215 689.242 833.858 688.150 C 839.711 687.549, 850.350 686.576, 857.500 685.988 C 864.650 685.399, 874.100 684.458, 878.500 683.895 C 894.026 681.912, 926.418 681.615, 940.500 683.327 C 947.650 684.196, 958.876 685.419, 965.446 686.045 C 972.236 686.692, 979.481 688.007, 982.233 689.092 C 984.896 690.141, 988.170 691, 989.509 691 C 997.945 691, 1047.064 707.362, 1067.347 716.928 C 1073.262 719.717, 1078.343 722, 1078.637 722 C 1079.691 722, 1107.653 738.338, 1115.500 743.539 C 1123.260 748.682, 1127.498 751.904, 1143.077 764.504 C 1153.358 772.820, 1179.070 798.832, 1189.530 811.500 C 1192.255 814.800, 1196.984 820.425, 1200.038 824 C 1203.092 827.575, 1207.251 832.975, 1209.281 836 C 1211.311 839.025, 1214.741 844.061, 1216.903 847.192 C 1219.066 850.323, 1221.435 853.988, 1222.168 855.338 C 1222.900 856.688, 1225.206 860.651, 1227.291 864.146 C 1229.375 867.641, 1231.481 871.175, 1231.970 872 C 1235.540 878.025, 1245.314 900.035, 1247.512 907 C 1248.988 911.675, 1251.497 918.587, 1253.089 922.359 C 1254.680 926.132, 1256.911 934.457, 1258.046 940.859 C 1259.180 947.262, 1260.736 954.750, 1261.503 957.500 C 1263.651 965.208, 1265.363 997.301, 1264.677 1017 C 1264.028 1035.637, 1261.674 1060.440, 1259.901 1067.328 C 1259.311 1069.622, 1258.288 1075.325, 1257.630 1080 C 1256.971 1084.675, 1256.032 1089.147, 1255.541 1089.937 C 1255.051 1090.728, 1254.076 1093.653, 1253.374 1096.437 C 1251.233 1104.935, 1246.298 1119.119, 1242.877 1126.610 C 1241.845 1128.870, 1241 1131.196, 1241 1131.778 C 1241 1132.361, 1240.338 1134.112, 1239.529 1135.669 C 1238.720 1137.226, 1236.856 1141.425, 1235.387 1145 C 1233.918 1148.575, 1231.880 1153.330, 1230.858 1155.566 C 1229.836 1157.802, 1229 1160.334, 1229 1161.193 C 1229 1162.052, 1228.354 1163.291, 1227.564 1163.947 C 1226.775 1164.602, 1225.846 1166.426, 1225.500 1168 C 1225.154 1169.574, 1224.225 1171.398, 1223.436 1172.053 C 1222.646 1172.709, 1222 1173.759, 1222 1174.387 C 1222 1175.016, 1221.045 1177.311, 1219.878 1179.488 C 1218.712 1181.665, 1216.090 1186.609, 1214.053 1190.473 C 1210.589 1197.045, 1209.033 1199.757, 1200 1214.954 C 1198.075 1218.193, 1194.253 1224.141, 1191.506 1228.171 C 1188.760 1232.202, 1186.285 1235.971, 1186.006 1236.548 C 1184.242 1240.197, 1169.422 1260.219, 1163.278 1267.253 C 1161.475 1269.317, 1160 1271.470, 1160 1272.038 C 1160 1273.827, 1164.107 1271.042, 1172.500 1263.562 C 1176.900 1259.641, 1183.091 1254.478, 1186.258 1252.088 C 1193.582 1246.563, 1231.822 1208.056, 1240.467 1197.500 C 1264.080 1168.670, 1276.207 1152.927, 1288.997 1134.500 C 1296.225 1124.086, 1310.053 1102.490, 1312.418 1097.920 C 1313.961 1094.939, 1315.741 1091.825, 1316.374 1091 C 1317.007 1090.175, 1319.734 1085, 1322.434 1079.500 C 1330.650 1062.767, 1331.273 1061.583, 1333.168 1059.115 C 1334.176 1057.803, 1335 1056.093, 1335 1055.313 C 1335 1054.534, 1335.846 1052.232, 1336.879 1050.198 C 1337.913 1048.164, 1339.449 1044.925, 1340.293 1043 C 1341.137 1041.075, 1343.396 1036.125, 1345.313 1032 C 1347.229 1027.875, 1350.245 1020.675, 1352.015 1016 C 1353.784 1011.325, 1355.806 1006.150, 1356.509 1004.500 C 1357.211 1002.850, 1358.246 999.700, 1358.809 997.500 C 1359.373 995.300, 1361.038 990.350, 1362.510 986.500 C 1363.982 982.650, 1365.783 977.250, 1366.512 974.500 C 1367.242 971.750, 1368.296 968.150, 1368.856 966.500 C 1370.127 962.751, 1374.470 945.179, 1375.776 938.500 C 1376.313 935.750, 1377.897 928.537, 1379.294 922.471 C 1380.692 916.404, 1382.143 908.079, 1382.519 903.971 C 1382.896 899.862, 1384.526 887.500, 1386.143 876.500 C 1387.759 865.500, 1389.532 853.125, 1390.081 849 C 1391.331 839.627, 1391.376 749.470, 1390.135 742 C 1389.633 738.975, 1388.478 731.550, 1387.570 725.500 C 1386.662 719.450, 1385.279 711.350, 1384.498 707.500 C 1383.717 703.650, 1382.102 695.100, 1380.909 688.500 C 1379.716 681.900, 1377.931 674.025, 1376.942 671 C 1375.953 667.975, 1374.834 663.475, 1374.456 661 C 1374.077 658.525, 1373.361 655.725, 1372.863 654.777 C 1372.366 653.829, 1371.521 650.679, 1370.986 647.777 C 1370.451 644.875, 1369.392 640.925, 1368.632 639 C 1367.872 637.075, 1366.277 631.900, 1365.086 627.500 C 1362.633 618.435, 1356.845 601.504, 1350.898 586 C 1347.140 576.201, 1345.644 572.507, 1340.774 561 C 1338.862 556.482, 1329.625 537.806, 1327.913 535 C 1327.410 534.175, 1326.550 532.375, 1326.002 531 C 1325.453 529.625, 1324.553 527.825, 1324.002 527 C 1323.450 526.175, 1322.526 524.375, 1321.948 523 C 1321.370 521.625, 1319.908 518.848, 1318.699 516.830 C 1317.489 514.811, 1313.800 508.591, 1310.500 503.006 C 1307.200 497.422, 1303.498 491.199, 1302.274 489.176 C 1301.049 487.154, 1299.638 484.600, 1299.139 483.500 C 1298.639 482.400, 1297.278 480.643, 1296.115 479.595 C 1294.952 478.547, 1294 477.353, 1294 476.942 C 1294 476.158, 1282.802 459.440, 1275.954 450 C 1273.759 446.975, 1270.581 442.505, 1268.892 440.067 C 1267.203 437.628, 1262.373 431.415, 1258.160 426.260 C 1253.947 421.105, 1248.729 414.549, 1246.565 411.693 C 1240.875 404.182, 1191.243 355.121, 1178.409 344.320 C 1166.194 334.040, 1163.715 332.076, 1149.500 321.424 C 1144 317.302, 1138.600 313.159, 1137.500 312.217 C 1136.400 311.276, 1131.923 308.136, 1127.551 305.240 C 1123.180 302.345, 1119.355 299.636, 1119.051 299.221 C 1117.837 297.560, 1104.253 289, 1102.832 289 C 1101.995 289, 1100.495 288.100, 1099.500 287 C 1098.505 285.900, 1097.330 285, 1096.889 285 C 1095.944 285, 1088.777 280.230, 1088.022 279.098 C 1087.735 278.668, 1083.900 276.539, 1079.500 274.367 C 1068.625 268.999, 1051.714 259.950, 1050.550 258.876 C 1050.028 258.394, 1048.903 257.986, 1048.050 257.969 C 1047.198 257.952, 1042.462 255.927, 1037.526 253.469 C 1032.591 251.011, 1028.034 249, 1027.399 249 C 1026.764 249, 1025.733 248.383, 1025.106 247.628 C 1024.480 246.873, 1020.487 245.006, 1016.234 243.479 C 1011.980 241.951, 1008.002 240.316, 1007.392 239.846 C 1006.783 239.376, 1003.633 238.077, 1000.392 236.959 C 997.152 235.842, 992.700 234.306, 990.500 233.547 C 988.300 232.788, 983.350 230.973, 979.500 229.513 C 975.650 228.054, 970.581 226.454, 968.236 225.958 C 965.890 225.461, 962.965 224.507, 961.736 223.837 C 959.620 222.683, 951.606 220.652, 937 217.564 C 933.425 216.809, 929.375 215.730, 928 215.167 C 926.625 214.604, 920.550 213.006, 914.500 211.617 C 908.450 210.227, 900.474 208.393, 896.775 207.540 C 893.077 206.688, 885.817 205.551, 880.642 205.015 C 875.467 204.478, 870.168 203.643, 868.866 203.158 C 867.565 202.674, 862 201.974, 856.500 201.602 C 851 201.231, 840.875 200.296, 834 199.526 C 804.460 196.215, 765.507 195.332, 726 197.077 M 833.500 457.456 C 817.421 460.385, 794.404 470.514, 776.488 482.543 C 750.973 499.675, 722.876 532.429, 708.897 561.336 C 704.668 570.080, 704.259 572.140, 706.398 573.915 C 707.494 574.825, 709.165 574.329, 714.148 571.617 C 722.140 567.266, 743.259 559.142, 757 555.134 C 786.484 546.534, 832.571 545.870, 856 553.710 C 872.065 559.085, 891.375 569.353, 904 579.234 C 914.024 587.080, 929.032 601.966, 935.109 610.092 C 937.821 613.717, 941.043 617.198, 942.270 617.828 C 943.881 618.656, 969.461 619.068, 1034.500 619.313 C 1084 619.500, 1125.513 620.008, 1126.750 620.443 C 1130.313 621.695, 1129.419 619.538, 1125.250 616.827 C 1121.237 614.218, 1094.267 602.802, 1081.955 598.501 C 1077.855 597.069, 1072.925 595.284, 1071 594.535 C 1064.323 591.936, 1046.436 585.122, 1034 580.440 C 1018.310 574.532, 1004.014 567.778, 1001.634 565.148 C 1000.539 563.938, 998.820 558.448, 997.338 551.424 C 993.155 531.608, 989.093 523.057, 975.123 504.663 C 966.346 493.106, 960.561 486.952, 956.461 484.810 C 954.832 483.959, 948.812 480.521, 943.083 477.170 C 927.467 468.037, 903.949 459.713, 886.308 457.075 C 876.572 455.619, 842.220 455.867, 833.500 457.456 M 473.500 589.148 C 452.443 590.057, 442.718 591.476, 425.500 596.152 C 383.228 607.631, 348.579 624.924, 316.500 650.550 C 295.871 667.030, 268.482 698.156, 251.767 724.113 C 246.041 733.006, 233.049 756.075, 229.303 764 C 225.633 771.767, 218.287 790.263, 216.596 796 C 212.245 810.752, 206.841 836.106, 205.023 850.288 C 202.151 872.699, 202.157 911.909, 205.035 932.758 C 207.158 948.138, 209.834 962.266, 213.034 975 C 220.211 1003.560, 241.494 1052.638, 257.411 1077.337 C 289.364 1126.919, 326.956 1166.873, 372 1199.126 C 397.996 1217.741, 413.388 1226.831, 437.561 1237.843 C 484.625 1259.284, 521.681 1269.852, 571.443 1276.023 C 608.007 1280.557, 654.447 1277.185, 691.494 1267.305 C 742.817 1253.618, 789.750 1231.974, 824 1206.198 C 843.788 1191.306, 870.799 1162.023, 877.521 1148.176 C 878.769 1145.604, 879.707 1143.406, 879.604 1143.292 C 879.501 1143.177, 873.454 1142.602, 866.166 1142.013 C 850.420 1140.742, 802.649 1132.180, 788.500 1128.094 C 749.656 1116.876, 715.037 1100.869, 677 1076.535 C 663.221 1067.721, 649.167 1057.043, 631.558 1042.011 C 613.521 1026.613, 601.298 1014.407, 584.482 995 C 573.476 982.298, 556.601 959.785, 552.252 952 C 551.176 950.075, 547.385 943.775, 543.828 938 C 528.116 912.492, 508.482 870.628, 501.854 848.500 C 493.432 820.380, 489.226 801.787, 486.357 780 C 483.851 760.971, 483.539 755.627, 483.639 733.500 C 483.727 713.875, 484.195 705.490, 485.817 694.500 C 486.953 686.800, 488.188 677.800, 488.562 674.500 C 488.936 671.200, 490.762 663.325, 492.620 657 C 499.158 634.746, 500.991 628.398, 504.028 617.500 C 510.985 592.537, 511.159 591.759, 510.014 590.609 C 508.474 589.064, 491.333 588.378, 473.500 589.148 M 465.500 593.169 C 446.599 593.835, 443.864 594.271, 428.500 599.055 C 425.200 600.082, 420.475 601.208, 418 601.555 C 415.525 601.903, 409.675 603.699, 405 605.546 C 400.325 607.394, 395.150 609.202, 393.500 609.564 C 390.908 610.133, 360.202 624.406, 356 626.995 C 355.175 627.503, 351.800 629.538, 348.500 631.517 C 345.200 633.495, 340.025 636.891, 337 639.062 C 333.975 641.233, 330.375 643.782, 329 644.727 C 324.913 647.534, 313.767 656.545, 309.926 660.148 C 307.960 661.991, 305.260 664.452, 303.926 665.615 C 298.571 670.284, 284.852 685.047, 277.399 694.158 C 266.455 707.539, 253 725.932, 253 727.513 C 253 727.746, 251.300 730.539, 249.222 733.719 C 244.064 741.613, 244.064 741.613, 235.968 758 C 225.958 778.259, 225.410 779.539, 221.411 792 C 220.617 794.475, 219.299 797.918, 218.483 799.651 C 217.667 801.384, 217 804.325, 217 806.186 C 217 808.047, 216.100 812.130, 215 815.260 C 213.900 818.389, 213 822.302, 213 823.955 C 213 825.607, 212.362 828.656, 211.583 830.730 C 208.213 839.694, 206.495 860.413, 206.627 890.500 C 206.778 925.181, 209.006 944.939, 215.625 970.320 C 216.460 973.520, 217.520 978.245, 217.981 980.820 C 218.849 985.662, 224.724 1002.402, 228.084 1009.610 C 229.138 1011.870, 230 1014.371, 230 1015.168 C 230 1015.966, 230.661 1017.491, 231.468 1018.559 C 232.276 1019.626, 232.951 1021.192, 232.968 1022.039 C 232.986 1022.885, 233.874 1025.291, 234.942 1027.386 C 236.010 1029.481, 237.164 1032.470, 237.506 1034.029 C 237.849 1035.587, 238.730 1037.361, 239.466 1037.972 C 240.202 1038.582, 241.108 1040.301, 241.480 1041.791 C 241.852 1043.281, 242.745 1045.175, 243.466 1046 C 244.187 1046.825, 245.876 1049.750, 247.220 1052.500 C 248.564 1055.250, 250.762 1059.750, 252.103 1062.500 C 256.431 1071.374, 278.830 1104.124, 290.331 1118.395 C 315.551 1149.689, 347.062 1178.694, 381.500 1202.313 C 385.350 1204.954, 390.654 1208.679, 393.286 1210.591 C 395.919 1212.503, 400.644 1215.423, 403.786 1217.080 C 406.929 1218.737, 411.300 1221.212, 413.500 1222.581 C 415.700 1223.950, 418.850 1225.736, 420.500 1226.550 C 422.150 1227.364, 424.175 1228.456, 425 1228.977 C 428.027 1230.888, 437.738 1235, 439.224 1235 C 440.066 1235, 441.315 1235.675, 442 1236.500 C 442.685 1237.325, 443.709 1238, 444.276 1238 C 445.319 1238, 454.404 1241.967, 459 1244.430 C 460.375 1245.166, 463.075 1246.098, 465 1246.500 C 466.925 1246.902, 468.950 1247.570, 469.500 1247.985 C 470.050 1248.400, 472.300 1249.282, 474.500 1249.945 C 476.700 1250.608, 479.850 1251.761, 481.500 1252.507 C 485.596 1254.359, 505.951 1260.230, 522.500 1264.333 C 541.357 1269.008, 546.526 1269.990, 561.500 1271.743 C 590.740 1275.168, 653.581 1273.381, 674.500 1268.532 C 682.575 1266.659, 693.076 1263.809, 704.500 1260.387 C 708.900 1259.069, 713.187 1257.993, 714.027 1257.996 C 714.868 1257.998, 716.443 1257.381, 717.527 1256.625 C 718.612 1255.869, 721.410 1254.930, 723.745 1254.538 C 726.079 1254.147, 728.236 1253.427, 728.537 1252.940 C 728.838 1252.453, 730.978 1251.571, 733.292 1250.980 C 735.606 1250.389, 738.850 1249.289, 740.500 1248.537 C 742.150 1247.784, 746.425 1245.983, 750 1244.534 C 753.575 1243.085, 757.175 1241.482, 758 1240.971 C 758.825 1240.461, 761.690 1239.056, 764.366 1237.848 C 772.283 1234.278, 783.541 1228.381, 794.152 1222.247 C 799.619 1219.086, 805.534 1215.738, 807.296 1214.806 C 809.058 1213.875, 812.750 1211.305, 815.500 1209.097 C 818.250 1206.889, 822.975 1203.385, 826 1201.310 C 836.659 1194.001, 863.006 1166.148, 872.380 1152.277 C 876.685 1145.908, 875.959 1145.337, 862.831 1144.760 C 856.599 1144.487, 849.475 1143.786, 847 1143.204 C 837.910 1141.065, 825.246 1138.789, 815.500 1137.542 C 805.525 1136.266, 789.396 1132.527, 787.500 1131.051 C 786.950 1130.623, 784.700 1129.997, 782.500 1129.659 C 780.300 1129.321, 774.692 1127.460, 770.038 1125.522 C 765.383 1123.585, 760.781 1122, 759.811 1122 C 754.694 1122, 716.790 1104.501, 704.500 1096.464 C 701.750 1094.666, 696.800 1091.747, 693.500 1089.977 C 690.200 1088.207, 685.700 1085.524, 683.500 1084.015 C 681.300 1082.506, 676.188 1079.144, 672.141 1076.543 C 662.649 1070.443, 645.363 1057.614, 636.732 1050.264 C 633.010 1047.094, 628.060 1042.992, 625.732 1041.149 C 607.866 1027.004, 572.783 989.047, 562.281 972.500 C 560.535 969.750, 557.522 965.771, 555.585 963.659 C 553.648 961.546, 550.907 957.292, 549.494 954.205 C 547.060 948.890, 543.204 942.494, 537.011 933.500 C 535.496 931.300, 532.730 926.350, 530.865 922.500 C 528.999 918.650, 524.722 910.325, 521.360 904 C 517.998 897.675, 514.908 891.375, 514.493 890 C 513.771 887.606, 507.900 873.991, 503.900 865.434 C 502.855 863.198, 502 860.631, 502 859.730 C 502 858.829, 500.620 853.909, 498.933 848.796 C 492.692 829.883, 487.088 807.434, 486.378 798.500 C 486.072 794.650, 485.431 790.150, 484.954 788.500 C 484.477 786.850, 483.133 777.964, 481.968 768.754 C 480.241 755.101, 479.930 748.359, 480.285 732.254 C 480.709 713.018, 482.889 689.956, 484.931 683.107 C 485.487 681.240, 486.238 676.290, 486.600 672.107 C 486.980 667.713, 488.707 660.170, 490.689 654.248 C 492.577 648.610, 494.507 641.860, 494.978 639.248 C 495.449 636.637, 496.594 632.250, 497.522 629.500 C 500.815 619.745, 501.198 618.435, 502.502 612.500 C 503.226 609.200, 504.515 604.700, 505.366 602.500 C 507.234 597.667, 507.405 594.368, 505.836 593.399 C 504.284 592.440, 488.726 592.351, 465.500 593.169 M 553.256 594.438 C 550.229 596.985, 548.746 599.624, 542.259 614 C 539.333 620.485, 538.125 623.502, 531.646 640.500 C 526.149 654.923, 521.210 672.592, 519.006 685.723 C 507.564 753.896, 512.504 816.687, 533.468 869.544 C 539.318 884.294, 556.503 920.716, 561.756 929.500 C 562.743 931.150, 565.245 935.425, 567.315 939 C 570.988 945.341, 584.100 963.610, 596.832 980.127 C 606.609 992.810, 619.821 1006.611, 632.652 1017.545 C 639.076 1023.020, 646.620 1029.576, 649.416 1032.112 C 652.212 1034.649, 655.513 1037.253, 656.750 1037.898 C 660.242 1039.718, 659.676 1037.312, 653.913 1025.828 C 644.260 1006.591, 630.852 972.740, 627.467 959.061 C 624.399 946.663, 622.261 930.103, 621.455 912.500 C 620.922 900.870, 621.173 896.214, 622.941 885 C 625.655 867.778, 627.139 862.336, 633.305 847 C 647.498 811.696, 663.177 788.641, 690.823 762.428 C 710.340 743.922, 723.947 734.760, 756.751 718.039 C 766.981 712.824, 771 709.391, 771 705.865 C 771 703.013, 753.020 685.543, 738.650 674.434 C 700.929 645.273, 671.742 626.814, 644 614.575 C 639.325 612.512, 634.150 610.229, 632.500 609.500 C 618.509 603.319, 598.837 598.107, 577.500 594.926 C 570.350 593.861, 562.680 592.718, 560.455 592.386 C 557.036 591.878, 555.922 592.195, 553.256 594.438 M 555.833 596.768 C 554.087 597.534, 550 602.285, 550 603.548 C 550 604.258, 548.364 607.982, 543.390 618.600 C 542.075 621.405, 541 624.096, 541 624.581 C 541 625.567, 537.516 634.891, 535.426 639.500 C 533.418 643.927, 531.013 650.833, 529.503 656.500 C 528.771 659.250, 527.508 663.300, 526.696 665.500 C 524.158 672.381, 521 687.486, 521 692.747 C 521 695.519, 520.224 701.322, 519.275 705.643 C 517.813 712.303, 517.546 719.287, 517.525 751.500 C 517.494 798.012, 518.450 806.040, 529.016 848.065 C 530.062 852.227, 532.287 858.681, 533.959 862.409 C 535.632 866.136, 537.004 869.707, 537.009 870.343 C 537.014 870.979, 538.125 873.750, 539.478 876.500 C 540.831 879.250, 541.952 882.004, 541.969 882.620 C 541.986 883.235, 544.403 888.635, 547.341 894.620 C 550.278 900.604, 554.111 908.425, 555.858 912 C 557.606 915.575, 560.147 920.300, 561.507 922.500 C 562.866 924.700, 565.551 929.650, 567.474 933.500 C 569.397 937.350, 572.305 942.300, 573.936 944.500 C 575.567 946.700, 578.612 951.118, 580.701 954.317 C 582.790 957.516, 587.445 963.816, 591.044 968.317 C 594.643 972.818, 598.993 978.525, 600.711 981 C 606.869 989.872, 645.075 1027, 648.047 1027 C 649.611 1027, 649.136 1024.344, 646.889 1020.537 C 645.728 1018.569, 644.362 1015.056, 643.852 1012.729 C 643.343 1010.403, 641.853 1006.250, 640.541 1003.500 C 631.770 985.119, 624.570 963.757, 622.004 948.500 C 619.506 933.649, 618.950 926.902, 618.789 909.500 C 618.649 894.415, 618.993 889.557, 620.913 879.500 C 623.367 866.647, 626.844 854.365, 629.407 849.500 C 630.277 847.850, 630.990 845.914, 630.994 845.198 C 630.997 844.482, 631.879 842.232, 632.953 840.198 C 634.027 838.164, 635.858 834.250, 637.023 831.500 C 638.188 828.750, 639.544 825.825, 640.035 825 C 640.527 824.175, 642.575 820.350, 644.588 816.500 C 649.389 807.316, 658.781 793.090, 665.291 785.140 C 673.260 775.410, 693.837 754.446, 700 749.779 C 703.025 747.488, 706.918 744.305, 708.652 742.706 C 712.468 739.185, 720.089 734.343, 729.500 729.459 C 733.350 727.461, 737.175 725.243, 738 724.531 C 738.825 723.819, 740.625 722.896, 742 722.481 C 743.375 722.065, 745.573 720.887, 746.885 719.862 C 748.197 718.838, 749.829 718, 750.512 718 C 751.196 718, 752.291 717.354, 752.947 716.564 C 753.602 715.775, 755.570 714.827, 757.319 714.459 C 761.321 713.616, 766 709.307, 766 706.463 C 766 701.379, 756.318 691.898, 730.408 671.610 C 723.208 665.972, 715.558 660.290, 713.408 658.983 C 711.259 657.676, 707.057 654.639, 704.071 652.233 C 701.086 649.827, 697.036 646.975, 695.071 645.895 C 693.107 644.815, 686.775 641.048, 681 637.525 C 675.225 634.002, 667.800 629.784, 664.500 628.152 C 661.200 626.520, 655.765 623.636, 652.422 621.744 C 649.079 619.852, 645.160 618.006, 643.712 617.643 C 642.264 617.279, 637.264 615.186, 632.601 612.991 C 627.938 610.796, 623.435 609, 622.595 609 C 621.755 609, 619.590 608.360, 617.784 607.577 C 609.547 604.008, 590.443 599.529, 577 598.015 C 561.857 596.310, 557.464 596.051, 555.833 596.768 M 896.500 747.651 C 894.850 747.844, 886.300 748.687, 877.500 749.525 C 858.973 751.287, 849.817 752.721, 845.260 754.573 L 842.020 755.889 846.179 762.195 C 848.467 765.663, 856.954 775.250, 865.040 783.500 C 895.744 814.827, 928.606 860.914, 940.523 889.361 C 942.859 894.938, 945.886 901.975, 947.249 905 C 952.094 915.754, 964.741 954.651, 966.432 964 C 967.377 969.225, 968.792 976.514, 969.575 980.197 C 970.359 983.881, 971.043 990.856, 971.095 995.697 C 971.147 1000.539, 971.715 1009, 972.357 1014.500 C 973.282 1022.419, 973.251 1026.581, 972.212 1034.500 C 970.887 1044.588, 964.822 1084.414, 962.926 1095.477 C 961.627 1103.055, 962.932 1104.432, 970.500 1103.470 C 992.382 1100.687, 1028.924 1087.598, 1061.858 1070.745 C 1085.068 1058.868, 1115.427 1038.431, 1136.776 1020.311 C 1159.916 1000.670, 1202.695 953.226, 1205.495 944.098 C 1207.405 937.868, 1205.788 930.412, 1199.249 915.299 C 1187.143 887.320, 1155.515 849.359, 1118.500 818.384 C 1100.806 803.577, 1090.163 796.477, 1065 782.691 C 1056.469 778.018, 1032.586 767.933, 1019.719 763.571 C 1005.147 758.631, 974.162 751.235, 963 750.032 C 957.775 749.469, 949.675 748.560, 945 748.012 C 937.152 747.092, 903.417 746.841, 896.500 747.651 M 906 751.054 C 884.712 751.916, 856.280 754.494, 852.724 755.884 C 846.304 758.396, 847.943 761.707, 863.727 778.112 C 886.100 801.364, 890.059 805.958, 905.992 827.160 C 909.571 831.923, 913.275 837.098, 914.222 838.660 C 915.169 840.222, 917.767 843.975, 919.995 847 C 922.223 850.025, 924.714 853.850, 925.530 855.500 C 926.346 857.150, 928.024 860.176, 929.257 862.224 C 936.755 874.673, 941.126 882.672, 941.661 884.925 C 941.997 886.341, 942.851 888.625, 943.559 890 C 944.266 891.375, 945.780 894.638, 946.923 897.250 C 948.065 899.862, 949.861 903.913, 950.913 906.250 C 951.965 908.587, 953.142 912.075, 953.528 914 C 953.915 915.925, 954.632 918, 955.123 918.611 C 956.204 919.958, 961.997 936.487, 962.006 938.248 C 962.010 938.937, 962.630 940.684, 963.385 942.131 C 965.827 946.810, 968.939 957.324, 970.007 964.500 C 971.513 974.617, 972.547 979.459, 973.549 981.077 C 974.034 981.860, 974.772 989.025, 975.190 997 C 975.608 1004.975, 976.238 1015.353, 976.590 1020.062 C 977.203 1028.244, 975.976 1039.234, 971.855 1062.500 C 970.336 1071.075, 967.979 1087.544, 967.333 1094.101 C 966.894 1098.562, 967.093 1099.822, 968.312 1100.290 C 970.392 1101.088, 998.450 1094.468, 1002.684 1092.180 C 1003.886 1091.531, 1005.686 1090.985, 1006.684 1090.966 C 1007.683 1090.947, 1010.300 1090.063, 1012.500 1089 C 1014.700 1087.937, 1017.192 1087.053, 1018.039 1087.034 C 1018.885 1087.015, 1021.246 1086.149, 1023.286 1085.109 C 1025.326 1084.069, 1028.187 1082.919, 1029.643 1082.553 C 1031.100 1082.188, 1035.558 1080.339, 1039.550 1078.444 C 1043.542 1076.550, 1047.144 1075, 1047.554 1075 C 1047.964 1075, 1051.353 1073.240, 1055.085 1071.088 C 1058.817 1068.936, 1062.818 1066.875, 1063.976 1066.508 C 1065.133 1066.140, 1070.675 1063.166, 1076.290 1059.898 C 1085.258 1054.680, 1089.678 1051.741, 1106.117 1040.069 C 1108.107 1038.656, 1113.507 1034.821, 1118.117 1031.548 C 1122.728 1028.274, 1129.375 1023.099, 1132.890 1020.048 C 1145.027 1009.510, 1177.088 976.560, 1186 965.465 C 1187.925 963.068, 1192.097 958.059, 1195.271 954.334 C 1203.941 944.158, 1204.617 939.322, 1199.489 924.166 C 1194.498 909.414, 1189.348 900.305, 1174.728 880.373 C 1162.620 863.866, 1145.003 845.069, 1125.467 827.812 C 1107.957 812.345, 1100.843 807.124, 1081.170 795.304 C 1077.688 793.212, 1073.188 790.486, 1071.170 789.247 C 1069.151 788.008, 1066.668 786.707, 1065.650 786.355 C 1064.633 786.003, 1060.446 783.979, 1056.346 781.857 C 1052.247 779.736, 1048.337 778, 1047.658 778 C 1046.979 778, 1044.640 777.062, 1042.461 775.915 C 1032.956 770.913, 1013.098 764.037, 1001 761.559 C 997.425 760.827, 988.981 758.819, 982.237 757.098 C 975.492 755.377, 965.142 753.515, 959.237 752.960 C 953.331 752.406, 945.800 751.551, 942.500 751.060 C 935.851 750.072, 930.250 750.071, 906 751.054 M 820 759.093 C 804.211 761.810, 765.235 782.653, 742.500 800.537 C 732.327 808.539, 713.103 828.121, 705.231 838.500 C 688.157 861.013, 676.626 886.254, 672.602 909.926 C 670.462 922.516, 670.466 950.426, 672.609 965.318 C 674.487 978.363, 678.550 994.311, 682.763 1005.171 C 686.336 1014.381, 696.490 1033.826, 702.778 1043.500 C 708.903 1052.922, 738.461 1081.895, 746 1085.865 C 751.932 1088.990, 765.838 1093.971, 775.500 1096.432 C 778.800 1097.273, 787.575 1099.510, 795 1101.403 C 824.565 1108.940, 848.724 1112, 878.668 1112 L 901.234 1112 905.029 1108.090 C 912.351 1100.545, 916.929 1087.231, 925.936 1047.287 C 927.079 1042.220, 928.485 1030.970, 929.061 1022.287 C 929.637 1013.604, 930.466 1002.668, 930.904 997.984 C 932.163 984.521, 929.886 957.572, 925.879 938.500 C 922.879 924.226, 916.602 902.515, 912.358 891.739 C 904.688 872.263, 888.917 841.961, 876.462 822.773 C 872.633 816.873, 865.482 805.710, 860.570 797.968 C 855.659 790.225, 849.014 780.915, 845.804 777.278 C 840.734 771.534, 837.460 767.090, 833.500 760.576 C 832.219 758.468, 826.979 757.892, 820 759.093 M 814.500 763.500 C 805.939 767.539, 800.208 770, 799.366 770 C 798.253 770, 785.198 776.698, 776 781.987 C 772.425 784.043, 769.011 785.900, 768.414 786.113 C 766.587 786.764, 752.326 797.070, 742.140 805.100 C 731.780 813.267, 713.602 831.439, 710.480 836.750 C 709.429 838.538, 708.274 840, 707.914 840 C 707.323 840, 703.076 846.347, 694.198 860.500 C 688.258 869.968, 684.286 878.953, 680.052 892.500 C 675.094 908.360, 674.500 913.014, 674.500 936 C 674.500 953.786, 674.878 959.573, 676.686 969.500 C 679.843 986.824, 682.372 996.482, 685.981 1005 C 687.729 1009.125, 689.412 1013.400, 689.720 1014.500 C 690.029 1015.600, 690.847 1017.175, 691.537 1018 C 692.228 1018.825, 694.665 1023.100, 696.953 1027.500 C 705.800 1044.513, 709.964 1049.532, 736.155 1074.750 C 740.868 1079.287, 745.313 1083, 746.033 1083 C 746.753 1083, 748.053 1083.611, 748.921 1084.357 C 749.790 1085.103, 752.300 1086.201, 754.500 1086.797 C 756.700 1087.393, 761.875 1089.052, 766 1090.484 C 770.125 1091.915, 775.750 1093.514, 778.500 1094.037 C 781.250 1094.559, 785.075 1095.622, 787 1096.398 C 792.522 1098.623, 812.090 1103.002, 816.507 1103.001 C 818.710 1103.001, 822.085 1103.468, 824.007 1104.040 C 832.524 1106.576, 866.425 1109.873, 884.771 1109.949 C 896.381 1109.997, 897.257 1109.859, 901.004 1107.379 C 903.182 1105.937, 905.985 1102.900, 907.232 1100.629 C 911.955 1092.031, 917.342 1075.897, 919.022 1065.323 C 919.618 1061.570, 921.482 1052.875, 923.163 1046 C 926.034 1034.262, 927.449 1018.636, 928.189 990.500 C 928.619 974.141, 923.886 937.720, 920.002 927.505 C 919.451 926.056, 919 923.780, 919 922.448 C 919 919.171, 909.915 891.727, 906.769 885.500 C 905.379 882.750, 902.995 877.350, 901.471 873.500 C 899.947 869.650, 897.867 865.427, 896.850 864.115 C 895.832 862.803, 894.998 861.228, 894.996 860.615 C 894.993 860.002, 893.618 857.475, 891.939 855 C 890.260 852.525, 886.919 846.635, 884.514 841.911 C 882.109 837.187, 879.085 832.012, 877.793 830.411 C 875.015 826.968, 871.638 821.808, 866.580 813.279 C 864.551 809.858, 861.278 805.133, 859.308 802.779 C 857.337 800.426, 854.948 796.692, 853.997 794.481 C 853.047 792.271, 849.059 786.535, 845.135 781.734 C 841.211 776.934, 837.970 772.667, 837.934 772.253 C 837.897 771.839, 836.399 769.475, 834.604 767 L 831.340 762.500 824.420 762.293 C 820.123 762.164, 816.363 762.622, 814.500 763.500 M 1208.342 952.250 C 1207.238 953.487, 1204.543 957.200, 1202.353 960.500 C 1200.164 963.800, 1196.337 969.425, 1193.849 973 C 1174.047 1001.460, 1175.784 999.222, 1155.428 1022.500 C 1137.253 1043.284, 1122.323 1056.501, 1095.838 1075.251 C 1066.832 1095.785, 1038.285 1110.090, 1008.569 1118.979 C 1001.181 1121.190, 993.868 1123.485, 992.318 1124.081 C 990.768 1124.677, 983.425 1126.719, 976 1128.620 C 953.790 1134.306, 949.215 1136.020, 945.622 1139.996 C 943.860 1141.947, 940.462 1148.033, 938.070 1153.521 C 932.067 1167.299, 927.349 1175.807, 919.225 1187.500 C 901.661 1212.780, 882.058 1233.396, 854.908 1255.139 C 822.862 1280.804, 797.504 1295.771, 761.213 1310.442 C 728.769 1323.558, 711.383 1328.526, 672 1335.936 C 644.412 1341.127, 624.915 1343.002, 598.610 1342.994 C 560.316 1342.982, 524.701 1338.217, 492.662 1328.818 C 483.223 1326.048, 473.761 1323.368, 471.635 1322.861 C 467.592 1321.896, 463.594 1322.533, 464.499 1323.998 C 465.445 1325.529, 492.092 1339.476, 508 1346.766 C 549.157 1365.628, 554.990 1368.084, 577 1375.825 C 601.328 1384.381, 614.920 1388.145, 642.682 1394.012 C 673.799 1400.589, 706.324 1404.981, 724.211 1405.021 C 729.320 1405.032, 739.800 1405.694, 747.500 1406.491 C 763.391 1408.137, 795.493 1408.434, 801.500 1406.992 C 803.700 1406.463, 812.064 1405.806, 820.086 1405.531 C 837.418 1404.936, 865.142 1400.669, 888.460 1395.006 C 925.101 1386.108, 980.127 1365.530, 1007.500 1350.489 C 1013.550 1347.165, 1019.850 1343.796, 1021.500 1343.003 C 1023.150 1342.209, 1026.975 1340.011, 1030 1338.118 C 1033.025 1336.224, 1040.225 1331.922, 1046 1328.557 C 1071.164 1313.894, 1099.196 1288.024, 1135.901 1245.588 C 1154.123 1224.522, 1177.712 1188.712, 1191.292 1161.500 C 1196.031 1152.005, 1205.654 1128.304, 1209.560 1116.506 C 1216.944 1094.205, 1222.432 1061.950, 1223.683 1033.500 C 1224.293 1019.620, 1221.993 993.353, 1219.061 980.727 C 1218.010 976.202, 1216.692 968.354, 1216.130 963.286 C 1214.677 950.168, 1212.699 947.365, 1208.342 952.250 M 1207.297 958.562 C 1206.309 959.972, 1204.571 962.334, 1203.435 963.812 C 1202.299 965.291, 1200.303 968.300, 1199 970.500 C 1197.697 972.700, 1195.111 976.525, 1193.253 979 C 1191.396 981.475, 1187.541 987.052, 1184.688 991.393 C 1176.941 1003.180, 1176.999 1003.102, 1169.970 1011.085 C 1166.379 1015.163, 1161.374 1020.975, 1158.848 1024 C 1147.738 1037.303, 1125.333 1058.414, 1114.658 1065.637 C 1112.921 1066.812, 1107.900 1070.535, 1103.500 1073.910 C 1088.964 1085.059, 1077.563 1092.148, 1055.175 1103.960 C 1048.546 1107.458, 1036.460 1113, 1035.462 1113 C 1034.795 1113, 1030.752 1114.594, 1026.476 1116.542 C 1022.201 1118.491, 1016.407 1120.554, 1013.602 1121.128 C 1010.796 1121.701, 1004.225 1123.690, 999 1125.546 C 993.775 1127.403, 987.700 1129.224, 985.500 1129.593 C 983.300 1129.961, 980.714 1130.669, 979.754 1131.165 C 978.793 1131.661, 975.418 1132.517, 972.254 1133.067 C 969.089 1133.618, 964.925 1134.698, 963 1135.467 C 961.075 1136.237, 957.925 1137.135, 956 1137.464 C 954.075 1137.793, 951.375 1139.071, 950 1140.304 C 946.907 1143.077, 942 1150.169, 942 1151.866 C 942 1153.745, 937.354 1163.299, 931.236 1174 C 918.288 1196.649, 902.861 1216.283, 883.361 1234.930 C 877.938 1240.117, 871.362 1245.897, 868.750 1247.774 C 866.138 1249.652, 864 1251.528, 864 1251.943 C 864 1252.359, 859.837 1255.771, 854.750 1259.526 C 849.663 1263.282, 845.050 1266.859, 844.500 1267.477 C 843.601 1268.487, 831.656 1276.916, 818.650 1285.718 C 815.982 1287.523, 813.330 1289, 812.758 1289 C 812.185 1289, 808.935 1290.756, 805.537 1292.903 C 798.090 1297.606, 786.356 1303.616, 775.500 1308.287 C 762.039 1314.078, 744.665 1320.842, 741.500 1321.522 C 739.850 1321.877, 737.150 1322.775, 735.500 1323.518 C 730.752 1325.657, 723.021 1328.049, 716.396 1329.430 C 713.039 1330.129, 709.780 1331.018, 709.153 1331.405 C 708.527 1331.792, 705.199 1332.559, 701.758 1333.108 C 698.316 1333.658, 693.700 1334.708, 691.500 1335.441 C 689.300 1336.175, 684.575 1337.064, 681 1337.417 C 677.425 1337.770, 672.250 1338.697, 669.500 1339.475 C 666.750 1340.254, 661.125 1341.399, 657 1342.019 C 652.875 1342.639, 647.025 1343.569, 644 1344.085 C 640.975 1344.601, 622.750 1345.097, 603.500 1345.187 C 563.703 1345.373, 539.121 1343.596, 523.500 1339.403 C 518.550 1338.074, 512.340 1336.990, 509.700 1336.993 C 507.061 1336.997, 503.610 1336.332, 502.032 1335.516 C 500.454 1334.700, 497.200 1333.869, 494.801 1333.669 C 492.403 1333.470, 489.471 1332.787, 488.286 1332.153 C 485.691 1330.764, 485 1330.711, 485 1331.902 C 485 1332.398, 486.238 1333.308, 487.750 1333.924 C 489.262 1334.541, 491.625 1335.650, 493 1336.390 C 496.508 1338.279, 519.577 1349.389, 525 1351.802 C 527.475 1352.903, 533.325 1355.617, 538 1357.832 C 542.675 1360.047, 547.850 1362.179, 549.500 1362.568 C 551.150 1362.957, 552.950 1363.613, 553.500 1364.025 C 554.874 1365.055, 566.505 1369.466, 585 1375.973 C 586.925 1376.650, 590.750 1377.809, 593.500 1378.547 C 596.250 1379.286, 601.602 1381.019, 605.392 1382.398 C 609.183 1383.778, 615.708 1385.422, 619.892 1386.052 C 624.077 1386.683, 628.894 1387.777, 630.597 1388.484 C 632.301 1389.192, 636.126 1390.066, 639.097 1390.428 C 642.069 1390.789, 647.425 1391.718, 651 1392.492 C 665.665 1395.667, 680.276 1398.075, 693.500 1399.496 C 716.118 1401.927, 717.727 1402.043, 735 1402.481 C 744.075 1402.710, 753.072 1403.371, 754.993 1403.949 C 759.538 1405.316, 794.473 1405.314, 799.007 1403.946 C 800.928 1403.367, 809.482 1402.762, 818.015 1402.601 C 826.548 1402.441, 835.098 1401.815, 837.015 1401.209 C 838.932 1400.604, 845.389 1399.637, 851.364 1399.060 C 857.339 1398.484, 863.864 1397.580, 865.864 1397.052 C 867.864 1396.524, 875.800 1394.701, 883.500 1393.002 C 897.304 1389.955, 920.509 1383.245, 926.649 1380.524 C 928.381 1379.756, 931.531 1378.816, 933.649 1378.434 C 935.767 1378.052, 937.999 1377.345, 938.609 1376.864 C 939.219 1376.383, 941.694 1375.344, 944.109 1374.555 C 959.305 1369.590, 970.677 1365.007, 979.154 1360.432 C 980.614 1359.645, 982.426 1359, 983.180 1359 C 984.308 1359, 993.506 1354.590, 1005.750 1348.178 C 1006.987 1347.530, 1009.013 1346.473, 1010.250 1345.828 C 1011.487 1345.184, 1015.875 1342.899, 1020 1340.751 C 1024.125 1338.603, 1028.850 1335.830, 1030.500 1334.589 C 1033.270 1332.506, 1040.377 1328.263, 1051.643 1321.966 C 1054.137 1320.572, 1057.150 1318.516, 1058.338 1317.396 C 1059.527 1316.277, 1063.200 1313.405, 1066.500 1311.014 C 1079.960 1301.264, 1106.385 1275.794, 1121.503 1258 C 1126.409 1252.225, 1132.096 1245.700, 1134.141 1243.500 C 1137.994 1239.354, 1144.114 1231.654, 1152.185 1220.800 C 1159.803 1210.555, 1161.702 1207.791, 1165.098 1202 C 1166.872 1198.975, 1170.618 1192.900, 1173.421 1188.500 C 1176.224 1184.100, 1179.056 1179.600, 1179.713 1178.500 C 1181.071 1176.226, 1190.486 1157.283, 1191.392 1155 C 1191.719 1154.175, 1192.413 1152.825, 1192.933 1152 C 1194.767 1149.088, 1199 1139.105, 1199 1137.689 C 1199 1136.285, 1201.645 1129.478, 1204.514 1123.500 C 1205.305 1121.850, 1206.374 1118.700, 1206.888 1116.500 C 1207.403 1114.300, 1208.294 1111.150, 1208.868 1109.500 C 1210.637 1104.422, 1213.023 1093.933, 1214.555 1084.500 C 1215.359 1079.550, 1216.460 1074.375, 1217 1073 C 1218.941 1068.067, 1221.906 1025.481, 1220.761 1019 C 1220.324 1016.525, 1219.548 1008.650, 1219.036 1001.500 C 1218.504 994.060, 1217.438 986.899, 1216.543 984.757 C 1215.683 982.699, 1214.686 976.849, 1214.328 971.757 C 1213.686 962.642, 1211.876 956, 1210.033 956 C 1209.516 956, 1208.285 957.153, 1207.297 958.562" stroke="none" fill="#6c4918" fill-rule="evenodd"/><path d="M 779.500 156.101 C 732.807 157.068, 709.312 159.525, 670.333 167.514 C 661.376 169.350, 618.574 180.397, 610.500 182.957 C 564.510 197.537, 546.055 204.582, 517.119 218.603 C 493.342 230.124, 459.006 250.175, 432 268.308 C 402.880 287.861, 383.785 302.735, 359 325.174 C 346.407 336.574, 309.556 376.389, 291.132 398.500 C 275.389 417.393, 253.098 448.090, 245.021 462 C 242.625 466.125, 237.314 475.079, 233.217 481.898 C 229.121 488.717, 223.521 499.067, 220.773 504.898 C 218.025 510.729, 213.385 520.450, 210.462 526.500 C 196.944 554.480, 179.505 598.813, 176.532 612.758 C 176.150 614.549, 173.435 623.335, 170.498 632.282 C 165.233 648.321, 161.837 660.672, 160.540 668.500 C 160.175 670.700, 158.575 678.125, 156.983 685 C 153.794 698.778, 153.508 701.072, 151.992 725 C 151.417 734.075, 150.584 744.650, 150.140 748.500 C 148.723 760.813, 149.611 840.409, 151.423 863.500 C 153.221 886.412, 154.129 892.901, 157.015 903.500 C 158.064 907.350, 160.294 917.025, 161.972 925 C 167.602 951.767, 168.975 957.417, 174.485 976.500 C 194.912 1047.243, 217.194 1095.083, 258.554 1157 C 279.968 1189.058, 314.983 1230.361, 342.748 1256.314 C 362.336 1274.623, 399.888 1305.202, 421.405 1320.363 C 443.697 1336.070, 446.088 1337.721, 460.751 1347.523 C 480.896 1360.989, 521.378 1381.788, 544.500 1390.552 C 547.800 1391.803, 553.649 1394.247, 557.499 1395.983 C 561.348 1397.719, 570.798 1401.184, 578.499 1403.682 C 586.199 1406.180, 596.241 1409.522, 600.814 1411.107 C 614.733 1415.932, 667.937 1429.037, 681.500 1430.981 C 685.900 1431.611, 691.975 1432.779, 695 1433.576 C 711.503 1437.922, 784.209 1443.164, 809.884 1441.858 C 816.823 1441.505, 832.625 1440.698, 845 1440.064 C 867.482 1438.912, 896.485 1435.874, 903.032 1433.985 C 904.939 1433.435, 910.775 1432.310, 916 1431.484 C 921.225 1430.659, 931.350 1428.652, 938.500 1427.023 C 945.650 1425.395, 956.554 1422.950, 962.730 1421.590 C 982.024 1417.344, 1023.323 1403.805, 1060.380 1389.578 C 1085.644 1379.879, 1129.169 1359.419, 1150.299 1347.309 C 1191.535 1323.677, 1222.778 1297.915, 1242.847 1271 C 1247.563 1264.675, 1260.920 1249.375, 1272.529 1237 C 1294.978 1213.069, 1312.917 1192.412, 1322.519 1179.435 C 1330.305 1168.912, 1349.463 1140.284, 1354.597 1131.500 C 1380.202 1087.686, 1387.492 1073.326, 1398.460 1045.102 C 1412.574 1008.782, 1421.905 980.498, 1427.523 957.001 C 1436.082 921.201, 1437.906 912.287, 1441.434 889 C 1443.392 876.075, 1445.253 864.150, 1445.568 862.500 C 1446.338 858.476, 1447.961 816.920, 1448.674 783 C 1449.266 754.809, 1448.987 749.895, 1444.867 716 C 1440.020 676.126, 1427.833 625.790, 1414.483 590.500 C 1405.072 565.622, 1401.922 557.759, 1396.254 545 C 1389.944 530.795, 1379.021 508.434, 1374.516 500.500 C 1373.267 498.300, 1370.600 493.449, 1368.588 489.719 C 1356.899 468.045, 1341.556 444.590, 1322.003 418.500 C 1293.940 381.055, 1273.780 358.333, 1243.723 330.272 C 1217.618 305.900, 1213.573 302.496, 1184.697 280.603 C 1162.532 263.799, 1137.399 247.484, 1114 234.714 C 1110.975 233.063, 1108.050 231.372, 1107.500 230.957 C 1106.950 230.541, 1097.816 225.864, 1087.202 220.563 C 1061.527 207.741, 1040.286 199.052, 1003.500 186.323 C 991.048 182.014, 946.257 169.728, 935.500 167.671 C 915.376 163.821, 895.882 160.958, 877 159.080 C 851.473 156.540, 823.133 154.764, 814.813 155.182 C 811.341 155.357, 795.450 155.770, 779.500 156.101 M 731 193.619 C 728.525 193.809, 719.300 194.444, 710.500 195.030 C 671.421 197.631, 628.686 204.820, 603.506 213.028 C 573.547 222.795, 546.516 237.302, 550.141 241.670 C 551.413 243.203, 556.761 243.422, 560.278 242.084 C 563.113 241.007, 599.887 235.601, 615 234.041 C 644.934 230.950, 701.568 229.972, 731 232.037 C 778.455 235.368, 837.765 251.592, 898.810 277.942 C 913.511 284.288, 950.249 304.440, 964.305 313.869 C 980.575 324.782, 984.007 327.265, 995.155 336.188 C 1006.886 345.577, 1030.726 366.936, 1042.941 379 C 1051.326 387.281, 1079.724 418.884, 1088.769 430 C 1098.570 442.045, 1116.309 468.001, 1126.888 485.778 C 1133.068 496.161, 1146.621 522.448, 1151.492 533.500 C 1165.286 564.791, 1179.054 611.134, 1182.983 639.500 C 1183.593 643.900, 1184.521 649.938, 1185.046 652.917 C 1186.248 659.740, 1186.269 664.284, 1185.095 663.559 C 1183.236 662.410, 1178.143 652.049, 1172.530 638 C 1169.344 630.025, 1165.721 621.475, 1164.479 619 C 1163.237 616.525, 1160.571 610.225, 1158.555 605 C 1156.538 599.775, 1153.403 592.800, 1151.587 589.500 C 1149.771 586.200, 1145.943 578.269, 1143.079 571.875 C 1140.215 565.481, 1136.041 557.156, 1133.802 553.375 C 1131.564 549.594, 1128.147 543.575, 1126.210 540 C 1116.718 522.484, 1096.952 493.685, 1082.622 476.491 C 1056.207 444.798, 1043.185 431.480, 1020.052 412.500 C 1012.678 406.450, 1003.688 399.002, 1000.073 395.949 C 964.810 366.165, 914.561 336.453, 866 316.672 C 849.985 310.148, 809.503 297.141, 797 294.502 C 790.125 293.051, 781.350 291.021, 777.500 289.992 C 773.650 288.962, 762.175 286.958, 752 285.538 C 741.825 284.118, 729.450 282.328, 724.500 281.560 C 708.558 279.086, 662.853 277.577, 642.500 278.854 C 615.250 280.563, 579.403 286.331, 557 292.611 C 495.494 309.854, 454.879 328.183, 409.500 359.174 C 400.700 365.184, 390.527 372.441, 386.894 375.301 C 342.773 410.026, 315.638 437.652, 283.568 480.500 C 274.075 493.184, 251 527.148, 251 528.438 C 251 528.660, 248.818 532.620, 246.151 537.238 C 221.080 580.650, 198.602 637.099, 189.502 679.500 C 188.085 686.100, 185.599 700.725, 183.977 712 C 182.355 723.275, 180.150 738.410, 179.077 745.633 C 176.415 763.556, 177.738 768.513, 182.044 756.750 C 183.303 753.313, 185.579 747.983, 187.102 744.906 C 188.625 741.829, 191.544 735.079, 193.587 729.906 C 195.631 724.733, 198.641 718.025, 200.277 715 C 201.913 711.975, 205.608 705, 208.489 699.500 C 216.810 683.614, 224.494 671.230, 234.551 657.500 C 237.371 653.650, 241.853 646.728, 244.512 642.117 C 252.358 628.511, 281.033 599.179, 295.500 589.960 C 346.122 557.703, 375.331 543.989, 418.950 531.998 C 432.945 528.150, 474.564 520.693, 478.437 521.338 C 480.122 521.619, 487.800 521.365, 495.500 520.773 C 533.838 517.828, 585.142 525.725, 623.500 540.477 C 641.601 547.439, 641.656 547.463, 669 560.711 C 710.573 580.854, 706.274 578.216, 731.411 599 C 744.266 609.629, 779.185 644.725, 788.123 656 C 792.265 661.225, 799.086 670.056, 803.282 675.623 C 817.172 694.057, 817.225 694.075, 846.868 690.617 C 874.772 687.362, 894.765 685.978, 913.681 685.990 C 931.495 686.002, 969.911 689.282, 978.454 691.521 C 981.728 692.379, 988.703 693.994, 993.954 695.109 C 1010.289 698.580, 1043.528 709.823, 1063.153 718.515 C 1105.229 737.151, 1140.183 761.975, 1169.898 794.324 C 1197.860 824.765, 1208.342 838.207, 1222.275 861.500 C 1237.537 887.013, 1250.524 919.720, 1255.543 945.284 C 1263.610 986.380, 1262.230 1049.173, 1252.395 1088.500 C 1247.996 1106.091, 1229.011 1155.579, 1220.745 1171 C 1219.419 1173.475, 1215.918 1180.225, 1212.966 1186 C 1199.634 1212.081, 1173.159 1251.441, 1157.473 1268.500 C 1151.604 1274.882, 1149.207 1278.297, 1148.442 1281.361 C 1147.777 1284.024, 1147.892 1284.171, 1150.114 1283.496 C 1152.857 1282.663, 1159.658 1277.651, 1169 1269.579 C 1172.575 1266.490, 1179.948 1260.299, 1185.385 1255.823 C 1199.029 1244.588, 1231.644 1211.969, 1243.599 1197.602 C 1292.530 1138.799, 1317.640 1099.707, 1345.424 1039.078 C 1356.506 1014.896, 1368.323 980.485, 1375.844 950.500 C 1382.461 924.114, 1384.592 912.639, 1388.073 884.617 C 1389.158 875.882, 1390.248 868.408, 1390.494 868.009 C 1390.741 867.611, 1391.667 859.908, 1392.553 850.892 C 1394.563 830.445, 1394.909 764.533, 1393.101 746.500 C 1390.397 719.522, 1385.060 690.176, 1377.370 660 C 1364.931 611.194, 1352.155 576.818, 1330.986 535.195 C 1309.513 492.975, 1285.477 455.961, 1254.230 417 C 1244.907 405.375, 1221.865 380.529, 1212.518 372.023 C 1209.208 369.010, 1201.760 362.019, 1195.968 356.486 C 1166.925 328.749, 1111.438 288.576, 1074.631 268.637 C 1065.745 263.824, 1040.350 251, 1039.703 251 C 1039.440 251, 1034.355 248.709, 1028.403 245.908 C 984.122 225.075, 911.360 204.478, 864.500 199.512 C 861.200 199.162, 853.775 198.228, 848 197.436 C 828.959 194.826, 807.972 193.748, 771.500 193.510 C 751.700 193.380, 733.475 193.430, 731 193.619 M 833.500 457.456 C 817.421 460.385, 794.404 470.514, 776.488 482.543 C 750.973 499.675, 722.876 532.429, 708.897 561.336 C 704.668 570.080, 704.259 572.140, 706.398 573.915 C 707.494 574.825, 709.165 574.329, 714.148 571.617 C 722.140 567.266, 743.259 559.142, 757 555.134 C 786.484 546.534, 832.571 545.870, 856 553.710 C 872.065 559.085, 891.375 569.353, 904 579.234 C 914.024 587.080, 929.032 601.966, 935.109 610.092 C 937.821 613.717, 941.043 617.198, 942.270 617.828 C 943.881 618.656, 969.461 619.068, 1034.500 619.313 C 1084 619.500, 1125.513 620.008, 1126.750 620.443 C 1130.313 621.695, 1129.419 619.538, 1125.250 616.827 C 1121.237 614.218, 1094.267 602.802, 1081.955 598.501 C 1077.855 597.069, 1072.925 595.284, 1071 594.535 C 1064.323 591.936, 1046.436 585.122, 1034 580.440 C 1018.310 574.532, 1004.014 567.778, 1001.634 565.148 C 1000.539 563.938, 998.820 558.448, 997.338 551.424 C 993.155 531.608, 989.093 523.057, 975.123 504.663 C 966.346 493.106, 960.561 486.952, 956.461 484.810 C 954.832 483.959, 948.812 480.521, 943.083 477.170 C 927.467 468.037, 903.949 459.713, 886.308 457.075 C 876.572 455.619, 842.220 455.867, 833.500 457.456 M 473.500 589.148 C 452.443 590.057, 442.718 591.476, 425.500 596.152 C 383.228 607.631, 348.579 624.924, 316.500 650.550 C 295.871 667.030, 268.482 698.156, 251.767 724.113 C 246.041 733.006, 233.049 756.075, 229.303 764 C 225.633 771.767, 218.287 790.263, 216.596 796 C 212.245 810.752, 206.841 836.106, 205.023 850.288 C 202.151 872.699, 202.157 911.909, 205.035 932.758 C 207.158 948.138, 209.834 962.266, 213.034 975 C 220.211 1003.560, 241.494 1052.638, 257.411 1077.337 C 289.364 1126.919, 326.956 1166.873, 372 1199.126 C 397.996 1217.741, 413.388 1226.831, 437.561 1237.843 C 484.625 1259.284, 521.681 1269.852, 571.443 1276.023 C 608.007 1280.557, 654.447 1277.185, 691.494 1267.305 C 742.817 1253.618, 789.750 1231.974, 824 1206.198 C 843.788 1191.306, 870.799 1162.023, 877.521 1148.176 C 878.769 1145.604, 879.707 1143.406, 879.604 1143.292 C 879.501 1143.177, 873.454 1142.602, 866.166 1142.013 C 850.420 1140.742, 802.649 1132.180, 788.500 1128.094 C 749.656 1116.876, 715.037 1100.869, 677 1076.535 C 663.221 1067.721, 649.167 1057.043, 631.558 1042.011 C 613.521 1026.613, 601.298 1014.407, 584.482 995 C 573.476 982.298, 556.601 959.785, 552.252 952 C 551.176 950.075, 547.385 943.775, 543.828 938 C 528.116 912.492, 508.482 870.628, 501.854 848.500 C 493.432 820.380, 489.226 801.787, 486.357 780 C 483.851 760.971, 483.539 755.627, 483.639 733.500 C 483.727 713.875, 484.195 705.490, 485.817 694.500 C 486.953 686.800, 488.188 677.800, 488.562 674.500 C 488.936 671.200, 490.762 663.325, 492.620 657 C 499.158 634.746, 500.991 628.398, 504.028 617.500 C 510.985 592.537, 511.159 591.759, 510.014 590.609 C 508.474 589.064, 491.333 588.378, 473.500 589.148 M 553.256 594.438 C 550.229 596.985, 548.746 599.624, 542.259 614 C 539.333 620.485, 538.125 623.502, 531.646 640.500 C 526.149 654.923, 521.210 672.592, 519.006 685.723 C 507.564 753.896, 512.504 816.687, 533.468 869.544 C 539.318 884.294, 556.503 920.716, 561.756 929.500 C 562.743 931.150, 565.245 935.425, 567.315 939 C 570.988 945.341, 584.100 963.610, 596.832 980.127 C 606.609 992.810, 619.821 1006.611, 632.652 1017.545 C 639.076 1023.020, 646.620 1029.576, 649.416 1032.112 C 652.212 1034.649, 655.513 1037.253, 656.750 1037.898 C 660.242 1039.718, 659.676 1037.312, 653.913 1025.828 C 644.260 1006.591, 630.852 972.740, 627.467 959.061 C 624.399 946.663, 622.261 930.103, 621.455 912.500 C 620.922 900.870, 621.173 896.214, 622.941 885 C 625.655 867.778, 627.139 862.336, 633.305 847 C 647.498 811.696, 663.177 788.641, 690.823 762.428 C 710.340 743.922, 723.947 734.760, 756.751 718.039 C 766.981 712.824, 771 709.391, 771 705.865 C 771 703.013, 753.020 685.543, 738.650 674.434 C 700.929 645.273, 671.742 626.814, 644 614.575 C 639.325 612.512, 634.150 610.229, 632.500 609.500 C 618.509 603.319, 598.837 598.107, 577.500 594.926 C 570.350 593.861, 562.680 592.718, 560.455 592.386 C 557.036 591.878, 555.922 592.195, 553.256 594.438 M 896.500 747.651 C 894.850 747.844, 886.300 748.687, 877.500 749.525 C 858.973 751.287, 849.817 752.721, 845.260 754.573 L 842.020 755.889 846.179 762.195 C 848.467 765.663, 856.954 775.250, 865.040 783.500 C 895.744 814.827, 928.606 860.914, 940.523 889.361 C 942.859 894.938, 945.886 901.975, 947.249 905 C 952.094 915.754, 964.741 954.651, 966.432 964 C 967.377 969.225, 968.792 976.514, 969.575 980.197 C 970.359 983.881, 971.043 990.856, 971.095 995.697 C 971.147 1000.539, 971.715 1009, 972.357 1014.500 C 973.282 1022.419, 973.251 1026.581, 972.212 1034.500 C 970.887 1044.588, 964.822 1084.414, 962.926 1095.477 C 961.627 1103.055, 962.932 1104.432, 970.500 1103.470 C 992.382 1100.687, 1028.924 1087.598, 1061.858 1070.745 C 1085.068 1058.868, 1115.427 1038.431, 1136.776 1020.311 C 1159.916 1000.670, 1202.695 953.226, 1205.495 944.098 C 1207.405 937.868, 1205.788 930.412, 1199.249 915.299 C 1187.143 887.320, 1155.515 849.359, 1118.500 818.384 C 1100.806 803.577, 1090.163 796.477, 1065 782.691 C 1056.469 778.018, 1032.586 767.933, 1019.719 763.571 C 1005.147 758.631, 974.162 751.235, 963 750.032 C 957.775 749.469, 949.675 748.560, 945 748.012 C 937.152 747.092, 903.417 746.841, 896.500 747.651 M 820 759.093 C 804.211 761.810, 765.235 782.653, 742.500 800.537 C 732.327 808.539, 713.103 828.121, 705.231 838.500 C 688.157 861.013, 676.626 886.254, 672.602 909.926 C 670.462 922.516, 670.466 950.426, 672.609 965.318 C 674.487 978.363, 678.550 994.311, 682.763 1005.171 C 686.336 1014.381, 696.490 1033.826, 702.778 1043.500 C 708.903 1052.922, 738.461 1081.895, 746 1085.865 C 751.932 1088.990, 765.838 1093.971, 775.500 1096.432 C 778.800 1097.273, 787.575 1099.510, 795 1101.403 C 824.565 1108.940, 848.724 1112, 878.668 1112 L 901.234 1112 905.029 1108.090 C 912.351 1100.545, 916.929 1087.231, 925.936 1047.287 C 927.079 1042.220, 928.485 1030.970, 929.061 1022.287 C 929.637 1013.604, 930.466 1002.668, 930.904 997.984 C 932.163 984.521, 929.886 957.572, 925.879 938.500 C 922.879 924.226, 916.602 902.515, 912.358 891.739 C 904.688 872.263, 888.917 841.961, 876.462 822.773 C 872.633 816.873, 865.482 805.710, 860.570 797.968 C 855.659 790.225, 849.014 780.915, 845.804 777.278 C 840.734 771.534, 837.460 767.090, 833.500 760.576 C 832.219 758.468, 826.979 757.892, 820 759.093 M 1208.342 952.250 C 1207.238 953.487, 1204.543 957.200, 1202.353 960.500 C 1200.164 963.800, 1196.337 969.425, 1193.849 973 C 1174.047 1001.460, 1175.784 999.222, 1155.428 1022.500 C 1137.253 1043.284, 1122.323 1056.501, 1095.838 1075.251 C 1066.832 1095.785, 1038.285 1110.090, 1008.569 1118.979 C 1001.181 1121.190, 993.868 1123.485, 992.318 1124.081 C 990.768 1124.677, 983.425 1126.719, 976 1128.620 C 953.790 1134.306, 949.215 1136.020, 945.622 1139.996 C 943.860 1141.947, 940.462 1148.033, 938.070 1153.521 C 932.067 1167.299, 927.349 1175.807, 919.225 1187.500 C 901.661 1212.780, 882.058 1233.396, 854.908 1255.139 C 822.862 1280.804, 797.504 1295.771, 761.213 1310.442 C 728.769 1323.558, 711.383 1328.526, 672 1335.936 C 644.412 1341.127, 624.915 1343.002, 598.610 1342.994 C 560.316 1342.982, 524.701 1338.217, 492.662 1328.818 C 483.223 1326.048, 473.761 1323.368, 471.635 1322.861 C 467.592 1321.896, 463.594 1322.533, 464.499 1323.998 C 465.445 1325.529, 492.092 1339.476, 508 1346.766 C 549.157 1365.628, 554.990 1368.084, 577 1375.825 C 601.328 1384.381, 614.920 1388.145, 642.682 1394.012 C 673.799 1400.589, 706.324 1404.981, 724.211 1405.021 C 729.320 1405.032, 739.800 1405.694, 747.500 1406.491 C 763.391 1408.137, 795.493 1408.434, 801.500 1406.992 C 803.700 1406.463, 812.064 1405.806, 820.086 1405.531 C 837.418 1404.936, 865.142 1400.669, 888.460 1395.006 C 925.101 1386.108, 980.127 1365.530, 1007.500 1350.489 C 1013.550 1347.165, 1019.850 1343.796, 1021.500 1343.003 C 1023.150 1342.209, 1026.975 1340.011, 1030 1338.118 C 1033.025 1336.224, 1040.225 1331.922, 1046 1328.557 C 1071.164 1313.894, 1099.196 1288.024, 1135.901 1245.588 C 1154.123 1224.522, 1177.712 1188.712, 1191.292 1161.500 C 1196.031 1152.005, 1205.654 1128.304, 1209.560 1116.506 C 1216.944 1094.205, 1222.432 1061.950, 1223.683 1033.500 C 1224.293 1019.620, 1221.993 993.353, 1219.061 980.727 C 1218.010 976.202, 1216.692 968.354, 1216.130 963.286 C 1214.677 950.168, 1212.699 947.365, 1208.342 952.250" stroke="none" fill="#ebbd4d" fill-rule="evenodd"/></svg>